<?xml version="1.0" encoding="UTF-8" standalone="no"?>
<!-- Created with Inkscape (http://www.inkscape.org/) -->

<svg
   xmlns:dc="http://purl.org/dc/elements/1.1/"
   xmlns:cc="http://creativecommons.org/ns#"
   xmlns:rdf="http://www.w3.org/1999/02/22-rdf-syntax-ns#"
   xmlns:svg="http://www.w3.org/2000/svg"
   xmlns="http://www.w3.org/2000/svg"
   xmlns:sodipodi="http://sodipodi.sourceforge.net/DTD/sodipodi-0.dtd"
   xmlns:inkscape="http://www.inkscape.org/namespaces/inkscape"
   id="svg2"
   version="1.1"
   inkscape:version="0.48.4 r9939"
   width="1034"
   height="1290"
   xml:space="preserve"
   sodipodi:docname="Bones-1.svg"><metadata
     id="metadata8"><rdf:RDF><cc:Work
         rdf:about=""><dc:format>image/svg+xml</dc:format><dc:type
           rdf:resource="http://purl.org/dc/dcmitype/StillImage" /><dc:title /></cc:Work></rdf:RDF></metadata><defs
     id="defs6" /><sodipodi:namedview
     pagecolor="#ffffff"
     bordercolor="#666666"
     borderopacity="1"
     objecttolerance="10"
     gridtolerance="10"
     guidetolerance="10"
     inkscape:pageopacity="0"
     inkscape:pageshadow="2"
     inkscape:window-width="1680"
     inkscape:window-height="1050"
     id="namedview4"
     showgrid="false"
     fit-margin-top="10"
     fit-margin-left="10"
     fit-margin-right="10"
     fit-margin-bottom="10"
     inkscape:showpageshadow="false"
     inkscape:zoom="0.43954434"
     inkscape:cx="532.26165"
     inkscape:cy="687.37594"
     inkscape:window-x="0"
     inkscape:window-y="0"
     inkscape:window-maximized="0"
     inkscape:current-layer="g10" /><g
     id="g10"
     inkscape:groupmode="layer"
     inkscape:label="Bones-1"
     transform="matrix(1.25,0,0,-1.25,-44.745173,973.85262)"><path
       inkscape:connector-curvature="0"
       id="path22"
       style="fill:#000000;fill-opacity:1;fill-rule:nonzero;stroke:none"
       d="m 601.8846,575.59844 c -28.88781,8.7187 -46.04118,48.32829 -60.86791,72.04169 -8.30871,13.29293 -18.49946,25.84243 -29.6436,36.81614 -4.45074,4.38159 -10.56124,6.37726 -15.25156,10.43528 -5.75977,4.98423 -1.25964,8.87431 -1.66717,15.133 -0.1309,2.0673 -23.13544,1.54862 -27.90232,6.35502 -9.4004,9.47449 -17.64735,32.91373 -10.37847,45.3348 6.73538,11.49732 24.53092,12.48528 30.00173,-0.90892 4.75947,-11.64552 15.52818,-19.64302 26.8625,-10.08209 -1.84254,-1.55355 -11.18366,3.17628 -9.65233,8.20003 2.63044,8.6125 10.21546,3.5023 15.9456,2.79098 10.88727,-1.35597 17.92645,-2.08212 26.83286,-8.85455 9.39792,-7.14786 -1.63012,-11.27257 0.91633,-19.98633 -1.96603,6.73044 20.21109,1.0497 23.02923,1.07687 14.66126,0.14819 27.06503,9.83509 37.54971,18.95886 19.48988,13.31763 36.20855,-40.73586 41.09152,-51.89235 7.08858,-16.19505 -13.04348,-130.29646 -35.34656,-120.73058 -0.0939,0.042 -1.60049,-4.07285 -1.69188,-4.20375 -1.72892,-2.42296 -7.76779,-0.8126 -9.82768,-0.4841" /><path
       inkscape:connector-curvature="0"
       id="path26"
       style="fill:#000000;fill-opacity:1;fill-rule:nonzero;stroke:none"
       d="m 562.72418,370.62638 c -8.50453,15.14476 -1.86188,32.75505 -4.01226,48.97136 -0.66184,10.58217 -2.50432,52.76542 -11.77009,57.98742 -11.15917,6.2887 -21.44073,9.49608 -16.14843,25.78026 2.13825,6.58205 5.48382,11.69737 -1.46429,16.09752 -7.32873,4.64016 -16.25267,5.70444 -24.74751,5.50564 -6.90205,-0.16 -24.81053,-2.01219 -14.9605,10.58218 7.25358,9.27304 34.43025,8.39059 44.75303,5.77959 15.69023,-3.9662 25.91845,-10.06337 35.39999,-22.75229 8.14573,-10.89976 26.87848,12.71074 16.66238,22.60925 -11.45978,11.10099 -23.32928,11.76767 -37.64006,16.56784 -8.39544,7.26085 20.13159,9.14697 22.84441,8.36149 13.49136,-3.89831 32.94414,-17.90606 40.00378,-30.09314 2.39765,-4.1359 7.62692,-13.93744 3.94437,-18.54123 -2.81221,-3.51285 -9.40638,1.24125 -12.73255,1.47883 -8.92636,0.63275 -2.28856,-21.73649 -14.86353,-23.19593 -18.20911,-2.11401 -11.2513,-18.76428 -10.46339,-32.09079 1.1758,-19.91582 -1.93704,-38.96859 -2.50918,-58.71956 -0.26182,-9.06455 -0.69578,-17.70485 -2.86312,-26.58272 -1.76491,-7.21964 -9.29486,-5.86202 -7.42813,-8.89 -0.79518,0.15758 -1.46187,0.54062 -2.00492,1.14428 m 0.41214,99.81429 c 3.72133,2.93101 6.02687,8.02937 8.60635,11.87919 -5.4717,-5.26805 -13.9035,-2.68372 -19.83825,-6.48507 3.70679,-2.6619 9.85973,-2.77585 11.2319,-5.39412" /><path
       inkscape:connector-curvature="0"
       id="path30"
       style="fill:#000000;fill-opacity:1;fill-rule:nonzero;stroke:none"
       d="m 148.73094,167.64255 c -4.4914,2.10851 -8.30491,-0.41231 -12.9137,-0.34922 -9.82944,0.1394 -19.02354,2.98449 -28.60353,4.89785 -4.7115,1.12835 -10.436904,2.46066 -11.531509,8.1303 -1.38513,7.16776 -5.480363,10.46185 -11.122129,15.16161 -11.788282,9.8177 -26.71952,13.39644 -35.788897,27.12743 -9.023891,13.66642 -5.013762,29.22566 5.941095,40.68967 1.897218,1.98673 6.966737,0.39177 7.211776,2.83629 0.287591,2.86711 2.356483,7.65784 4.291851,9.8045 2.487072,2.76145 8.353334,3.26767 10.397282,5.90588 4.349076,5.61975 5.948432,11.30994 7.075318,17.76899 2.991823,17.20115 8.761244,35.87987 23.338863,46.97999 7.37171,5.60949 27.22574,16.05372 36.794,11.87045 3.15322,-1.37779 10.49265,-0.26705 14.10661,-0.86571 8.10977,-1.34257 16.7771,-4.05561 23.45038,-9.03269 7.48029,-5.57867 13.30547,-13.85424 17.18061,-21.48273 5.30722,-10.44717 6.19493,-20.83565 6.26243,-32.35395 0.022,-4.30652 -0.34335,-13.74126 4.01747,-16.07133 4.09523,-2.18627 10.13023,-3.83992 12.24608,-8.0452 0.92733,-1.84439 1.31763,-5.67551 2.75118,-6.31526 1.34552,-0.60012 2.16574,2.09384 3.50098,1.63164 4.03507,-0.0763 7.87059,-5.70633 10.00551,-8.55435 5.90295,-7.8838 2.9258,-20.48497 -2.20388,-28.00781 -5.66965,-8.30932 -15.04716,-13.3671 -23.00725,-19.19375 -8.06135,-5.90147 -11.40532,-9.19996 -16.20779,-17.69562 -2.53109,-4.47967 -4.99909,-10.99741 -8.0452,-15.01635 -4.32854,-7.2059 -21.89211,-9.41712 -29.48098,-10.35473 -3.19578,-0.35949 -6.70116,-0.81728 -9.66657,0.5341 m -3.92943,17.85997 c 0.94054,1.33084 1.54507,2.47827 2.82602,3.38946 1.07113,-4.54276 4.11871,2.00873 6.34167,3.25594 0.15406,-1.5436 1.54213,-4.57064 3.64917,-4.57064 -0.40057,0 3.2442,5.01083 3.545,5.28961 3.8047,3.54353 1.69326,-1.74021 4.37255,-1.51132 2.34328,-0.67202 3.63303,3.06813 5.71806,4.75846 0.95081,0.76886 3.20605,-3.50245 6.327,-3.3205 0.53556,3.93676 1.74902,4.82301 4.52662,7.14428 0.33161,-7.85299 7.29834,3.77096 7.92488,5.77089 3.24713,10.36206 6.28298,23.13344 11.65916,33.09053 2.83336,5.25146 6.8875,10.36647 8.30491,16.43669 0.9112,3.91182 -2.0322,6.99608 -3.58754,10.37674 -2.50615,7.47148 -6.64687,14.99139 -10.39142,21.93759 -3.82965,10.57336 -4.76138,24.06517 -14.33111,31.66725 -2.62353,2.08357 -6.49133,6.52655 -8.43403,9.21171 -2.07036,2.86417 -1.39687,4.03214 -2.44306,6.86549 -0.92293,2.48707 -1.18117,4.61319 -3.40413,5.49797 -1.59642,0.63387 -3.19285,-0.0719 -4.82155,0.71751 -3.58754,1.74022 -3.1048,0.26265 -5.61388,0.29346 -0.3096,0.006 -2.22003,-1.17971 -3.09747,-1.31323 -0.88478,-0.13353 -3.55087,1.41447 -4.779,1.50545 -4.13485,0.30226 -5.1913,-1.80038 -9.04296,-2.5531 -2.4768,-0.48421 -2.73945,3.15029 -5.66525,1.05792 0.87305,-0.0616 -5.36004,-0.9919 -4.51194,-0.68523 -4.60145,-1.66098 -7.03423,-3.52445 -9.78542,-7.66811 -0.98162,-6.88897 -11.87925,-13.26585 -16.64504,-18.11381 -7.223517,-7.34823 -7.715063,-16.871 -12.507262,-25.25809 -6.554426,-11.47281 -17.275982,-24.2163 -13.471275,-37.36624 2.171603,-10.2799 10.150777,-18.29429 11.838171,-28.24111 1.233998,-7.269 0.614798,-14.77864 5.9543,-20.93543 0.713108,5.57134 3.228059,0.449 5.139946,-1.6287 4.20969,-4.57504 0.42405,0.63681 3.96611,0.63681 0.13646,0 8.4135,-9.61375 8.4135,-5.73127 0,6.15092 6.3358,-1.70354 7.30275,-3.98959 0.61626,0.0763 1.33964,0.0807 1.92803,0.20249 -0.22303,0.99776 0.14966,2.17454 -0.047,3.21485 2.46653,-0.67789 10.72449,-9.99818 9.75901,-1.84146 2.66608,-0.66909 4.66895,-3.71667 5.72687,-4.07029 1.3778,-2.49587 2.90819,-3.45842 3.76509,-0.52823 0.51062,-2.24643 1.6918,-5.19864 3.59048,-2.99475" /><path
       inkscape:connector-curvature="0"
       id="path34"
       style="fill:#000000;fill-opacity:1;fill-rule:nonzero;stroke:none"
       d="m 342.88703,168.27175 c -18.61432,17.47699 -22.97409,49.91937 -33.09634,72.29637 -11.32593,25.00233 -28.56598,44.9625 -37.8684,70.79888 -4.04227,11.22641 -2.36944,43.73987 11.88511,48.82469 20.33454,7.24101 44.43649,-18.65698 67.56697,-11.94672 19.92699,5.78143 37.66936,-7.04672 56.61541,2.05667 25.68473,12.33531 13.51528,-40.35631 10.22176,-49.15641 -9.80474,-26.1681 -22.66133,-49.55448 -31.10127,-76.37654 -2.31258,-7.35001 -30.51366,-76.40498 -44.22324,-56.49694" /><path
       inkscape:connector-curvature="0"
       id="path38"
       style="fill:#000000;fill-opacity:1;fill-rule:nonzero;stroke:none"
       d="m 396.09341,574.63 c -22.7961,-0.97422 -29.05201,47.36082 -53.91195,38.42917 -12.43936,-4.46851 -19.62654,-17.00717 -29.36333,-25.05048 -7.89571,-6.52161 -26.04617,-8.36537 -36.00571,-5.60375 -15.87998,4.40409 -7.41262,26.36285 -4.62685,36.784 1.62101,5.30317 3.09709,10.7781 6.08415,15.52572 3.71168,5.90165 10.53119,7.72395 14.19992,13.4753 4.40142,6.91076 9.66433,11.9697 14.00401,18.66844 8.57739,13.25791 12.19514,29.30966 19.43332,43.33245 5.39173,10.44799 39.00082,70.87081 54.82712,59.46471 6.79803,-4.89792 4.79324,-15.97928 6.25591,-23.09669 2.9629,-16.41137 9.13293,-32.39064 11.025,-48.88521 1.30701,-11.38463 -0.47771,-25.61676 7.8635,-34.82216 4.72347,-5.20923 11.6557,-4.04178 16.8032,-9.3208 6.20492,-6.36058 0.41062,-8.11577 0.79172,-15.19292 1.34458,-24.97803 14.79036,-68.37489 -27.38001,-63.70778" /><path
       inkscape:connector-curvature="0"
       id="path42"
       style="fill:#000000;fill-opacity:1;fill-rule:nonzero;stroke:none"
       d="m 329.37436,397.13777 c -22.29694,0.85979 -40.42789,13.50403 -60.70831,20.59509 -6.81628,2.38658 -20.89202,-0.64706 -20.03223,9.12087 0.88638,0.92627 18.22623,-4.83965 22.76007,-2.63256 -1.15229,-0.17727 -2.12953,0.0709 -2.93392,0.749 4.85516,6.167 9.82554,7.48549 17.06285,7.65391 5.35597,0.12187 2.95165,10.03606 2.41096,13.24254 -1.44037,8.51592 -9.64384,6.74316 -15.45629,10.78949 -5.37147,2.96716 -2.21373,10.81165 3.92224,6.3753 7.22402,0.97059 4.45851,8.08159 0.58723,5.77257 -2.13175,0.84428 -9.06104,-1.49356 -9.49536,-3.85355 0.12187,0.67587 -0.95287,-8.59569 -2.01431,-5.305 1.79049,0.24376 2.09851,0.89968 0.92849,1.97442 -5.81024,-0.79774 -7.77136,-7.55862 -11.19279,4.0419 -3.70951,12.59328 4.22582,16.19864 6.09609,27.2496 2.09186,12.35395 6.2778,23.41379 16.11443,31.96073 3.01148,2.61925 6.75866,4.57816 8.5979,8.32977 2.74336,4.99476 10.07817,1.90794 14.24195,4.35214 10.85153,1.9589 26.02861,1.2786 36.82474,-1.27861 7.48106,-1.77276 13.26249,-8.7641 21.9025,-8.21454 8.31648,1.5002 16.78143,-2.93836 24.77881,-3.5411 3.86463,-0.29029 15.07515,-2.81426 18.3747,-5.51108 0.1795,-3.93554 9.68594,-8.02619 13.49739,-8.81286 7.56305,-1.56668 20.41781,-16.11885 25.41922,-21.89585 3.24194,-5.39585 3.6253,-17.81406 4.27679,-24.05862 0.66922,-6.42406 -4.5693,-11.25263 -6.5969,-14.23973 -9.23167,-13.59489 -24.93171,-21.49255 -40.80681,-29.94642 -10.13135,-5.39807 -20.25383,-8.15472 -30.89485,-12.03264 -13.10294,-4.77317 -23.02599,-11.66257 -37.66459,-10.88477 M 274.94828,428.252 c 1.20992,0.009 2.36886,0.25483 3.47462,0.73791 -0.78888,-1.44259 -1.81708,3.1799 -2.92727,2.00322 -0.51189,-0.54291 -1.46697,-5.15874 -0.54735,-2.74113 m 43.46375,1.38718 c 13.28244,1.40492 15.59146,4.27015 16.24074,18.31266 -0.96173,6.60133 0.0443,8.40733 -5.15875,12.28304 -3.76934,2.8054 3.48127,5.07232 4.98812,5.74597 -1.39606,-0.62712 -17.65009,3.42144 -21.89142,2.88961 -2.5683,-0.32575 -16.38035,-1.69743 -18.37027,-3.42809 2.36664,-2.76994 -1.60657,-7.84891 2.68573,-9.60838 0.93735,-0.13517 12.86362,0.45427 12.7905,0.64928 -1.47583,3.95326 -12.416,-10.70528 -12.69078,-13.23369 -1.54009,-14.24416 7.34589,-14.04694 21.40613,-13.6104 m 2.1251,9.59287 c -2.95165,2.30017 -7.04895,1.76834 -10.47925,2.35113 -3.1666,0.53405 -4.58038,5.39585 -1.1944,5.32716 -2.15613,1.9168 -4.69118,2.72341 -7.60073,2.42425 2.98268,3.92003 10.80057,4.94158 15.3056,5.14102 9.3735,0.41438 -0.3346,-5.11664 -0.70688,-5.5133 3.23972,-1.06809 7.30822,0.97502 9.98731,-1.96112 -1.49577,-6.04734 6.30439,-3.23529 6.31768,-5.98751 0.0111,-2.87187 -10.98227,-1.93674 -11.62933,-1.78163 m -7.78243,9.20951 c 0.39665,0.64263 -2.90069,-0.21937 -2.63477,-0.39444 2.90511,-1.92123 1.38054,0.29029 2.63477,0.39444 m 4.35656,12.25424 c -0.42546,2.11845 0.12188,2.78545 3.50121,2.47079 2.24698,-0.74456 -2.22925,-3.74497 -3.50121,-2.47079 M 424.67595,435.558 c 4.52719,3.8048 -1.68191,0.67808 -1.83925,-1.58662 0.61382,0.52739 1.22986,1.05922 1.83925,1.58662 m -58.36383,-0.29029 c 2.60596,-0.0222 4.58038,6.1249 5.35596,5.16096 0.18171,-1.29412 0.81326,-2.26027 1.89243,-2.89847 0.71132,1.04372 -0.28143,5.98308 -1.73731,3.32837 -5.52216,1.1811 2.05862,4.89283 -7.08884,5.88336 -5.54432,0.60052 -1.49799,5.10777 -5.58199,4.28344 -0.6936,-0.13961 -5.26955,-0.41439 -5.52881,0.21938 1.28304,-3.15774 -3.90008,-8.64001 -0.17063,-10.91137 0.99496,-1.54895 11.31023,-6.27336 12.85919,-5.06567 m -70.66681,4.62913 c 3.88013,4.30782 -5.61967,-2.35999 0,0 m 82.34268,-0.0643 c 0.11079,6.11382 -3.25746,-1.38941 0,-0.57393 l 0,0.57393 m 3.88678,0.61603 c 0.83098,5.9853 -3.30399,-1.24979 -0.14182,-0.71575 0.0465,0.23711 0.0953,0.47643 0.14182,0.71575 m 7.52317,2.16942 c -1.90572,3.45468 -1.33622,-5.72602 0.0421,-0.2925 l -0.0421,0.2925 z m -95.41238,3.82918 c 0.0598,0.93956 0.11744,1.87691 0.17506,2.81647 -0.0776,0.41439 -0.82434,-7.49657 -0.51189,-6.60576 0.54069,1.53344 0.11745,2.46414 0.33683,3.78929 m 102.91117,-3.16439 c 1.03042,7.2772 -2.85637,-5.74819 -0.0532,-0.21716 l 0.0532,0.21716 z m -22.55178,2.01209 c -1.36502,10.65653 -2.39544,-5.40028 0,0 m 4.38095,1.68412 c 0.96615,5.06346 -3.75161,1.56225 -1.19219,-1.75725 0.60718,-3.10455 1.39384,0.6936 1.19219,1.75725 m 29.03788,-1.29855 c -0.87531,3.53445 1.31406,9.63276 -1.40049,13.06528 0.37007,-0.46979 -0.84871,-15.75545 1.40049,-13.06528 m -25.2065,3.69843 c -1.15451,3.9998 -0.24818,-2.39101 -0.1396,-2.1672 -3.76491,-7.74033 1.4448,4.03082 0.1396,2.1672 m 12.64203,-0.2371 c 1.20769,5.47784 -3.67849,6.20246 -1.35395,1.0836 0.85758,-1.70185 1.58441,-5.34267 1.35395,-1.0836 m -8.44722,-1.29634 c 0.94843,5.0834 -3.42808,5.20528 -0.98389,-0.20387 -0.21051,-0.84427 1.1523,-0.24818 0.98389,0.20387 m 16.49335,1.5689 c 0.19501,2.82091 -0.25705,5.53324 -1.35395,8.1392 -0.7778,-1.05701 -0.0554,-12.23429 1.35395,-8.1392 m -12.6664,1.65975 c -0.26591,4.03969 -2.63477,0.1108 -0.64041,-2.14505 0.63376,-1.56446 1.27639,1.73067 0.64041,2.14505 m 8.14364,3.01148 c -2.80097,4.76431 0.49859,-8.35415 0.36341,-2.21374 0.21052,0.81991 -0.0133,1.46697 -0.36341,2.21374 m 12.9855,-2.66579 c 1.44923,2.03646 7.21736,0.95286 9.64162,3.46797 2.18936,2.2647 2.70346,-1.42708 5.20306,0.39887 2.82091,2.06084 -1.28525,3.97986 -0.92184,4.48953 -4.19923,-5.90996 -1.58441,1.11462 -6.59025,3.74939 -3.19319,1.68191 1.77277,-7.94198 -0.031,-7.37027 -2.88518,-1.9168 -5.24517,5.01693 -5.23187,4.78868 0.0842,-1.36946 2.83864,-5.31607 1.11684,-6.48166 -3.12671,-3.93111 -3.46354,4.77095 -4.49396,5.52659 0.13961,-0.10415 -0.81325,-12.19662 1.30742,-8.5691 m -58.25525,1.50463 c 0.12409,-0.3479 -7.86886,12.01048 -7.97301,7.10879 -0.0421,-2.03868 7.47885,-9.20065 7.97301,-7.10879 m 78.05924,5.75262 c -0.24154,1.75282 -2.92728,5.46898 -4.45186,6.3465 3.77821,-2.17385 -1.16116,-6.78083 4.45186,-6.3465 m -7.58079,4.56044 c -3.93775,2.82977 2.53727,-4.17708 0,0 m 12.17003,0.0244 c -0.76007,0.46092 -5.44682,6.21133 -5.91882,5.71938 -3.66075,-3.83803 6.78969,-6.99798 5.91882,-5.71938 m -170.50889,0.45871 c 1.3052,3.17103 -6.79412,-3.11121 0,0 m 173.2744,0.68694 c 0.39001,5.73268 -5.88557,-0.43654 -1.02155,-0.18171 l 1.02155,0.18171 z m 1.89908,4.10617 c 1.39383,0.80217 2.08299,1.9722 2.0564,3.51672 0.44098,-0.96394 -3.62973,-2.08522 -3.75383,-2.22925 -2.00322,-2.43755 2.39324,-2.87631 1.69743,-1.28747 m -93.06126,5.39585 c 2.21374,2.05419 -0.2925,8.95467 0.50524,11.80661 2.54835,9.09871 8.8195,7.76692 12.26974,0.35677 5.32494,4.64685 -13.53727,12.58884 -11.78001,15.97039 1.53344,2.94722 11.36341,-1.63095 12.78384,-3.10234 6.15371,-4.34771 4.84629,-12.01713 15.36322,-9.83663 5.05459,1.04815 -8.98348,17.36644 -10.60556,16.90552 -4.79533,3.16882 -9.86987,6.06286 -16.05017,5.04573 0.3745,1.62652 -8.59347,-4.20588 -4.46293,1.77055 -6.77418,-7.8201 -15.21253,-10.30862 -11.29916,-23.39605 1.48691,-4.96596 6.40855,-18.80903 13.27579,-15.52055 m -68.18051,10.96898 c 8.95911,3.2508 16.01028,16.09226 23.89243,21.64101 -9.17184,0.22382 -12.08139,-8.28988 -16.63296,-13.35999 -0.13517,-0.48086 -13.37994,-1.84589 -13.01209,-9.34247 0.0465,-0.92183 5.23187,1.01934 5.75262,1.06145 m 146.2752,3.29734 c -0.83319,4.94158 -9.49093,7.51873 -9.61281,11.75786 9.25161,-1.57998 -13.50181,9.76793 -7.95528,-2.8608 3.09126,-7.03788 0.4587,-1.02821 7.6384,-3.59871 0.63819,-0.22825 10.12248,-5.89888 9.92969,-5.29835 m -112.04534,6.10052 c 4.34771,2.39988 15.94158,10.21112 12.74174,16.99195 1.01491,-2.15391 -15.67123,-2.6658 -16.77921,-3.43695 -0.21716,-0.15068 4.5272,-13.22704 4.03747,-13.555 m 125.94603,-44.2349 c 4.05742,3.6519 -3.10677,-3.92224 0,0" /><path
       inkscape:connector-curvature="0"
       id="path46"
       style="fill:#000000;fill-opacity:1;fill-rule:nonzero;stroke:none"
       d="m 493.22377,224.79289 c -0.77496,3.58874 15.35181,14.30293 17.42877,17.9194 -4.50759,-0.11269 -9.13307,-1.1633 -13.15176,-3.23332 -3.54539,-1.82731 -6.14246,-7.14454 -9.69132,-8.32691 -0.44729,-0.1491 1.03501,3.29227 1.07315,3.21252 -0.8131,1.70075 6.26729,5.87374 7.65597,6.78219 3.4067,2.23126 16.19612,3.56967 18.08237,6.65737 -2.76003,-0.86858 -5.62061,-2.01975 -6.45799,1.81344 -6.00723,1.11129 -12.21036,0.70214 -18.17945,-0.39008 -2.97328,-0.54438 -20.04491,-9.24923 -21.37465,-8.30784 -0.43862,0.31033 12.0318,8.12233 12.58485,8.99264 2.29713,0.0815 17.82405,2.12377 18.38229,4.52666 -0.0919,-0.39875 -19.0463,3.99269 -20.04837,4.29435 -5.63795,1.69555 -11.48915,3.04436 -17.42183,2.72362 -1.29334,-0.22538 -9.0828,1.63141 -5.41431,4.00309 -2.86232,0.11963 -4.33769,2.88139 -2.45144,5.16119 1.71982,2.07696 7.16707,-1.05581 9.19722,-1.42336 2.66641,-0.48196 23.89543,-5.00689 24.28724,-3.89906 -0.54438,-1.1373 -0.51664,-2.14631 0.078,-3.03049 0.46462,0.58079 0.93792,1.15117 1.42162,1.71288 1.92786,-4.48505 10.68126,-3.37722 14.46936,-4.89593 5.77145,-2.31448 3.97882,-0.64667 7.1584,1.34187 0.95873,0.59986 0.40569,-3.38936 0.37968,-3.55059 -0.22364,1.91226 0.32073,2.79297 1.64181,2.63867 0.5149,-0.71081 0.22711,-2.6196 0.41955,-2.9594 2.33354,4.70003 4.63935,1.38348 6.45799,-1.44417 1.32974,-2.06308 5.53046,-1.47883 4.37236,0.55652 0.22885,-1.45283 0.92579,-2.57106 2.09083,-3.36336 1.2968,-0.17163 0.36927,8.91116 1.98334,8.67538 1.1321,-0.16643 -0.37448,-6.64176 3.49338,-8.45 2.13937,-1.00034 3.42924,2.20872 6.82727,2.29541 6.00376,0.15083 31.42137,-6.0107 32.47025,2.71148 0.18897,0.48544 -1.16677,-5.98122 0.23925,-4.77111 0.0485,0.0416 3.21599,6.94343 3.35815,6.37131 -0.15256,0.60679 1.07662,-4.84393 1.65567,-3.46911 0.72642,1.73369 2.7531,6.51173 5.36924,2.15151 -2.01802,3.35988 -7.8172,-8.87996 -1.30894,-4.15219 -4.19552,-0.43342 -0.23058,2.14284 0.89979,2.89006 4.41917,2.92647 6.25861,6.0263 9.45033,10.34319 3.26107,4.40877 6.83767,8.61296 10.84769,12.36293 -1.1529,1.34361 -1.05755,2.4445 0.27913,3.29921 3.63727,1.99547 0.77842,0.0364 2.19485,-0.6484 0.59292,-0.28606 0.73161,9.11227 0.82176,8.80887 0.82697,-2.67335 2.43584,-7.96803 5.13346,-9.91323 -0.1283,6.65563 27.71647,4.27354 31.96228,6.92435 -3.20039,1.69035 -17.7131,0.0381 -18.5158,2.05616 4.03603,2.20005 7.27456,9.37058 0.14217,9.60463 40.47122,14.72422 26.82883,-46.81479 11.46661,-62.84447 -8.94236,-9.33245 -12.56577,18.22973 -19.46412,23.11526 -5.95869,4.225 -11.8619,2.35609 -17.90207,-0.14216 -1.64353,-0.6796 -12.56577,-2.90566 -8.86088,2.00935 -4.41224,-3.77078 -8.93023,-12.1705 -0.8391,-14.75023 3.97014,-3.98401 -1.6158,-9.25096 -5.05371,-11.04879 -6.06964,-3.17612 -6.22394,3.22986 -11.22736,5.60848 -9.15388,4.34809 -20.69331,3.32001 -30.35689,1.86892 -0.35887,-2.87099 5.03463,-3.80718 4.80752,-6.17367 -0.37621,-3.85746 -11.76308,1.08876 -13.04601,1.966 -7.08385,4.84566 -7.70451,1.26906 -13.25404,-2.89179 -3.21946,-2.41329 -11.34873,-7.96456 -14.98601,-5.03983 -3.80024,3.05476 -8.02871,-8.47774 -11.57757,-6.27942 m 19.95129,15.44543 c 3.06342,0.68481 7.20174,5.82346 2.4445,3.69276 0.007,0.12309 -9.01692,-7.38552 -2.4445,-3.69276 m 70.73622,-0.6588 c 3.58527,1.39909 -4.45731,0.60852 0,0 m -19.67043,4.95315 c -2.52251,5.04503 -27.8413,8.52281 -29.34788,1.8273 -0.003,0.0208 29.72063,-1.07662 29.34788,-1.8273 m 62.41279,0.1907 c 3.10157,0.009 -1.83251,7.81374 -0.44903,0.76976 -0.53917,-0.39875 0.12656,-2.44623 0.44903,-0.76976 m -93.43368,0.74722 c -2.89179,2.75657 0.69521,-2.44276 0,0 m -12.74434,0.19591 c 3.94241,0.9882 -3.92854,-0.15777 0,0 m 53.81889,1.1373 c 7.66637,2.76176 -6.97289,-0.27219 0.0104,-0.24965 l -0.0104,0.24965 z m 13.07028,-0.23058 c -3.36336,3.30614 -5.2184,-0.60159 0,0 m -7.61609,0.93792 c 1.43896,1.86892 -4.57694,-2.75136 0,0 m -61.4818,0.44036 c 1.06102,1.9244 -3.95108,-1.77009 0,0 m 2.00241,2.23646 c 0.3034,3.53846 -2.72883,-2.67682 0,0 m 24.34966,-0.003 c 2.11163,0.1647 9.83174,-0.45249 11.19789,1.23612 -1.75449,-2.17058 -14.98427,2.05962 -18.46205,-1.69034 2.4237,0.13002 4.84566,0.28259 7.26416,0.45422 M 513.872,251.6928 c -2.48784,1.23265 -12.60565,3.11024 -11.61745,2.21392 3.95975,-0.13349 7.7704,-2.259 11.61745,-2.21392 m 65.67559,-0.43169 c 2.06655,2.46877 -5.30856,-1.75449 0,0 m -61.70718,0.25312 c -0.89285,2.23126 -2.03188,-2.09776 0,0 m -2.10643,0.27392 c 1.74062,2.22953 5.44552,2.56586 0.0954,1.83771 -1.3332,-0.0104 -1.9972,-3.62687 -0.0954,-1.83771 m -0.1543,6.21528 c -0.16296,3.35468 -1.42336,-4.5492 0,0 m 1.37655,-0.3346 c -0.81483,2.11856 -1.25866,-2.15325 0,0 m -56.86498,7.72704 c -1.621,2.53466 -2.18445,-1.70421 0,0 m 170.71284,1.98161 c -4.14698,5.6761 -2.64734,0.3242 0,0 m -3.87306,3.5558 c -3.12584,1.51177 -0.66054,6.1962 -5.0381,3.72049 -1.32627,3.86093 4.68963,1.37135 6.0367,2.10817 2.55373,1.39215 -12.17569,8.35638 -10.64311,1.87585 0.007,-0.0329 8.75686,-8.82968 9.64451,-7.70451 m -13.81923,7.519 c 0.67093,3.94935 -3.32522,-1.40082 0,0 m 12.43748,4.97396 c -2.57453,2.19138 -1.67995,-0.85991 0,0 m -49.52801,-51.16289 c 4.18859,3.22987 -0.56692,-3.60954 0,0 m -55.88892,24.44848 c 0.10922,3.79158 1.97467,-1.03675 0,0 m 3.03742,0.84257 c -1.50657,3.52459 2.22606,-0.54091 0,0 m 1.58459,-0.002 c -0.58945,4.02736 2.2798,0.47329 0,0 m -35.1384,6.97463 c 0.35368,2.1307 1.81344,-1.7961 0,0 m 90.59043,3.58526 c -1.1217,4.42958 0.42649,7.4618 5.35363,6.88795 4.52146,2.6196 2.17058,10.80955 8.60083,11.46141 -4.15219,-3.37029 -4.3897,-9.2787 -7.33177,-13.45515 -0.61546,-0.87552 -6.62096,-5.10225 -6.62269,-4.89421 m 19.0567,16.52032 c 2.32835,1.80477 -6.1754,6.47706 0.26006,2.71669 1.47363,-0.83564 2.73749,-3.88693 -0.26006,-2.71669" /><path
       inkscape:connector-curvature="0"
       id="path50"
       style="fill:#000000;fill-opacity:1;fill-rule:nonzero;stroke:none"
       d="m 751.41577,574.28791 c -2.33328,1.51718 -4.17004,2.83421 -6.22355,5.03811 -2.9658,3.18144 -2.36645,5.50145 -3.15711,9.11637 -0.22006,1.00408 -1.27501,2.94811 -1.254,3.73435 0.0398,1.56031 1.24184,2.32664 1.37564,3.01004 0.1338,0.6856 1.58906,9.57638 2.88066,5.83761 0.89239,1.13347 2.08447,2.25255 3.36058,3.00009 -3.17259,0.53632 -1.20202,2.43833 0.67344,3.44794 0.96096,0.51642 5.56006,0.62921 7.30062,0.82826 -1.06269,4.18995 -6.42923,-0.70994 -6.27552,3.13057 0.25102,6.2722 7.6401,1.67089 8.77577,6.24235 -1.52824,-0.0155 -4.10479,-1.17991 -5.18076,0.0409 -1.19428,1.35352 -1.97499,3.72882 -0.42352,5.00825 1.44088,1.58243 10.28521,1.348 4.59357,2.88177 -1.34136,0.36271 -3.24558,-1.29934 -5.11552,-0.0409 -1.72618,1.15337 -1.75272,3.46674 -0.44012,4.8833 1.88211,2.03249 7.77391,-0.76633 7.6202,3.68901 -4.02518,-0.11943 -3.8007,-3.04985 -8.01276,-1.06048 -0.0332,-0.16035 -0.0166,-0.31627 0.0486,-0.46776 -5.02152,6.57851 7.86127,3.51208 6.24677,8.04151 -1.96946,-0.68782 -5.8155,-4.30385 -7.28513,-0.65133 -1.54483,3.8383 4.18331,4.19658 6.03888,5.49039 -0.2079,0.33285 -0.9488,1.59791 -1.10029,1.79696 -0.0398,-0.0155 -1.23852,-0.57945 -0.78403,-0.50204 -1.00629,-0.61484 -2.89393,-1.50392 -3.99974,-0.69999 -2.66945,1.94071 1.33251,3.48775 1.77483,4.23418 4.61237,7.78054 -1.47958,-0.27424 -4.08157,2.18952 -2.43501,2.30563 3.75757,4.80589 0.35497,7.02416 -1.29934,0.84817 -1.90201,-2.91825 -3.32962,0.2267 -0.65575,1.4453 1.27058,4.40558 1.066,6.16493 -0.51531,0.16035 -0.094,-0.41025 -0.46223,-0.45006 -1.5968,-0.16809 -0.3417,0.89792 -1.32366,1.24294 -0.0763,0.0243 -0.15371,0.0509 -0.23001,0.0763 -2.61748,-5.37649 -1.28054,3.8781 -1.26395,4.57256 0.0664,2.90609 -0.0553,3.6868 -2.23707,1.40107 -2.10327,-2.2039 -0.41247,9.51115 -0.1515,10.48427 -1.86552,-0.46002 -2.15192,-5.22168 -3.79185,-1.85336 -1.03505,2.12539 1.29823,8.5712 2.36424,10.54288 -8.17421,-5.92719 0.28972,6.98988 -0.70994,8.00502 -1.66426,1.47958 -2.67829,-2.03139 -3.13168,1.8821 -0.15039,1.29713 2.43833,5.28913 3.19361,6.2335 -7.43442,0.54959 4.30274,7.75068 1.53598,9.43263 -0.22006,0.51863 -4.81252,-0.2676 -1.78811,2.98903 1.02952,1.10803 4.11586,2.70705 5.54679,3.41366 -0.001,0.0343 -0.39478,2.13092 -0.43459,2.28241 -4.62675,-2.18841 -2.67276,0.26319 -2.78666,2.34434 2.0911,1.95066 6.47346,-0.62258 6.5387,3.58727 -1.35463,-0.063 -5.7779,-1.41213 -5.69275,0.76302 0.0686,1.76931 1.996,1.64325 3.3827,1.69522 2.00595,0.0774 5.05248,0.67787 6.34076,1.81465 -1.59238,0.0265 -9.12964,-2.50026 -8.42965,0.54517 0.47439,2.05571 7.4311,2.36092 9.19709,2.88508 l 0,0.18909 c -2.73137,-1.14894 -3.65252,-0.0321 -2.26029,1.70296 1.58021,1.96836 5.59433,2.20058 7.45764,3.33183 -1.66205,0.007 -7.19999,-2.98681 -5.49813,0.59051 1.30155,2.73801 7.3371,2.01812 6.35182,5.455 -1.80801,-0.80835 -6.96113,-5.65183 -5.46275,-0.99081 0.56508,1.75383 4.47194,4.01412 6.04883,4.54049 -0.47661,0.48988 -0.33506,0.43127 -0.66017,0.88576 -2.26804,-0.3815 -6.88704,-5.1509 -5.57112,-0.32843 0.37709,1.38117 3.8383,3.55521 5.30904,3.68902 -1.94292,1.05495 -7.5837,-3.80955 -6.80189,1.15889 0.72431,4.61127 4.1612,2.43612 6.03445,3.44684 6.83175,3.68569 -3.43799,1.1025 -4.29389,2.34544 -2.21938,3.21572 5.53351,1.26174 4.42659,2.73801 -0.64137,-0.209 7.11926,3.7443 7.11926,2.12428 0,-0.52416 2.508,-0.8924 1.50723,-2.47372 -0.78402,-1.1965 -0.25544,-2.04245 -0.15924,-3.2876 0,-2.04134 2.13976,-5.94599 -1.82792,-3.94777 1.61782,-1.78037 5.11884,-6.57962 -0.0951,-5.48929 2.76345,-0.3428 2.73801,-3.40592 2.37309,-6.02671 -0.75196,0.53854 -1.91638,0.81167 -2.50025,1.16885 2.16629,-1.70075 1.89426,-3.23673 1.6731,-5.99906 -0.63806,0.52416 -1.54372,0.92114 -2.02807,1.60565 -0.22117,-0.10395 -0.44233,-0.20679 -0.66349,-0.31184 2.76565,-1.83456 2.1287,-6.90252 -1.05274,-5.17081 1.2739,-1.10803 2.0524,-4.57256 -0.0343,-5.40303 -1.88985,-0.75417 -3.7432,3.15379 -5.45169,1.68527 2.11986,-0.7398 5.91502,-2.8121 4.30385,-4.51285 -0.23554,-0.51752 -0.76081,-2.67276 -1.70296,-2.87845 -0.74533,-0.16255 -4.13798,1.78922 -4.4266,2.09111 -0.11611,0.12053 0.44454,1.83455 0.27204,1.82017 -0.51974,-0.0409 -2.37088,-0.0973 -1.56474,-1.36015 1.30708,-2.04356 1.23741,-0.19794 3.65142,-2.56882 2.36202,-2.32111 0.99081,-2.73248 -0.21453,-5.62087 -2.0325,0.68118 -6.52544,1.14783 -4.51064,3.87921 -2.0712,0.23332 -2.41511,-1.80138 -1.60896,-3.12173 -0.26872,0.44012 4.59357,-0.88687 4.91757,-1.43646 3.25664,-5.49481 -8.02271,-5.81218 -5.73035,-1.46963 -2.34544,1.05384 -2.59646,-2.95696 -1.7096,-2.95696 -0.17582,0.28309 4.4454,-0.67013 4.94191,-1.3115 0.48766,-0.63142 0.99302,-4.47635 -0.19352,-5.33668 -3.39265,-2.46155 -6.41817,3.28317 -6.12734,3.2113 -0.91894,0.2278 -1.91307,1.27722 -2.28462,-1.03616 0.0188,-2.46708 1.08038,-1.04057 2.09552,-1.58795 5.68723,-3.06865 5.66622,0.46334 5.86637,-7.19556 -1.4818,0.0287 -2.26361,0.10394 -3.80401,0.29746 -1.01736,0.12607 -2.63738,0.37377 -3.51761,0.37377 -0.80725,0 -0.0807,2.30895 -0.44344,2.28573 -4.37572,-0.28309 -0.54517,-5.09893 3.1925,-4.08047 4.08047,0.92888 3.22457,0.011 4.15346,-1.96504 0.0177,-0.0398 0.58387,-3.60497 0.41025,-3.79517 -2.9282,-3.1914 -10.08838,3.10624 -10.08838,1.05495 -0.63916,-2.88398 3.10735,-3.08634 5.48044,-2.91826 3.07528,0.22006 3.49991,0.93774 4.92753,-0.95653 0.54185,-0.72099 0.97091,-4.38678 0.6093,-4.85012 -0.742,-0.95101 -6.85276,-0.27756 -7.54721,-0.094 -0.65133,0.17251 -0.0862,2.82537 -1.53709,1.88764 -3.96104,-2.55887 4.60021,-4.43655 6.81295,-3.07529 3.06422,1.8998 7.8115,-6.8616 -0.48435,-7.00204 -2.78998,-1.00961 -3.01667,1.47295 -3.43688,1.47295 -1.06933,0 -3.55853,1.26285 -1.63661,-2.14307 1.25289,-2.22491 2.90719,-0.61042 5.16859,-0.8161 1.84783,-0.0619 5.3201,2.98682 5.93493,0.80614 0.0509,-0.17803 2.17515,-4.3536 2.11543,-4.5626 -0.37045,-1.29271 -1.01072,-1.4055 -2.76786,-1.94956 -1.33915,-0.42574 -3.31193,-1.55921 -4.62675,-1.35131 -0.11721,0.0387 -1.7107,1.32919 -1.23077,1.33804 -2.72474,-0.0464 -1.05053,1.3126 -1.70849,-1.28386 -0.45228,-1.83013 2.64401,-1.17991 2.81541,-1.19207 1.71623,-0.11943 3.4579,0.64027 4.99388,1.30376 3.94666,1.73282 1.52382,1.28938 3.60828,-0.79398 0.21453,-0.21453 1.91971,-3.24447 1.81797,-3.54746 -0.28862,-0.86918 -5.35548,-3.31193 -6.52433,-3.27986 -0.88134,0.0243 -1.92191,2.1862 -2.69599,1.76046 -1.92523,-0.0299 0.51532,-2.66834 0.98861,-3.06754 2.32,-1.75272 0.031,-0.27977 2.16077,0.0752 2.56771,0.42574 9.24132,5.94156 9.24132,-0.97202 0.22669,-1.08038 1.69965,-1.67753 -0.35275,-2.67608 -1.37454,-0.66791 -4.10812,-2.87845 -5.86637,-2.55112 -0.50868,0.0907 -2.54891,1.1224 -2.61084,1.04168 -1.27943,-1.69633 0.9886,-3.54304 2.59646,-3.48886 0.57171,1.25621 2.87071,1.93408 4.45645,2.4516 4.18442,1.36347 3.04432,2.09442 5.23605,-1.83124 2.1287,-3.79738 -1.64103,-5.44836 -5.39197,-5.76905 -4.56924,2.70151 -4.48078,-2.0336 0.10837,-1.66868 1.58022,0.12717 7.69871,4.619 8.20739,1.66204 0.28309,-1.55699 2.69488,-4.20321 1.996,-5.49149 -0.41468,-0.76633 -5.84093,-2.52016 -6.68357,-2.36092 -0.88908,0.16587 -2.07783,2.30231 -2.72584,2.13976 -3.29423,-0.82495 -1.32145,-3.97763 1.28938,-4.42107 1.54594,-0.26318 6.77204,4.54602 9.24354,2.16962 1.97389,-1.8998 1.32477,-6.13066 0.0265,-7.02084 -3.0034,-1.57027 -6.24013,-0.23886 -7.86126,0.063 -0.13381,0.0243 0.17582,2.51905 -1.6145,1.06158 -2.12096,0 0.0586,-3.28649 0.4169,-3.90906 1.50059,-1.14342 2.31669,0.28751 4.14903,0.5717 8.96597,0.0332 6.38057,0.0442 7.82809,-7.45764 -0.56508,-1.13678 -6.80521,-1.6167 -8.07248,-1.03726 -2.21827,1.01293 -1.13457,1.83124 -2.52237,3.18366 -4.70084,1.29823 -1.62998,-3.24448 -1.86552,-3.67243 -1.00629,-1.93297 14.54483,1.59681 11.52816,-3.33515 -2.4516,-4.02739 1.48069,-5.79227 -3.82834,-5.9294 -1.50281,-0.0387 -3.50102,0.0652 -4.82911,0.65465 -1.46853,0.62368 -1.21861,2.42506 -1.15669,2.38525 0.0354,-0.0232 -2.11654,1.49064 -3.06422,0.21674 -2.76013,-2.84859 4.9806,-3.81176 6.77203,-4.53607 0.75306,-0.49872 3.7432,-1.27611 4.00417,-2.3377 -0.1139,0.45892 -3.8582,-6.80299 -3.52314,-6.59068 -1.09144,-1.32256 -10.21113,4.32928 -10.21113,5.9283 0,-3.71224 8.10455,-6.45688 7.13474,-9.62615 -0.0973,-0.31737 -2.71146,-1.09808 -3.01446,-1.45858 -0.5518,-0.063 -0.094,-2.42174 -0.69335,-3.06754 -0.95763,-1.03505 -2.26471,-1.41766 -3.95551,-1.65983 -5.46164,-0.73758 -11.62989,-1.15116 -12.88168,-7.25417 -0.39478,-7.14027 0.59714,-9.51225 6.09306,-13.92447 -0.38704,-0.56729 -0.97754,-0.82384 -1.77152,-0.77518" /><path
       inkscape:connector-curvature="0"
       id="path54"
       style="fill:#000000;fill-opacity:1;fill-rule:nonzero;stroke:none"
       d="m 146.17118,579.62449 c -14.47542,5.71864 -33.32369,1.68868 -41.08865,19.96914 -2.3929,3.89723 -1.81403,14.44223 -3.67232,16.55861 -4.066828,4.63833 -20.702864,-7.47737 -23.818433,-9.14761 -14.066152,-7.56585 -25.083102,-25.35225 -33.795635,0.0885 0.785344,7.46631 8.218467,11.47783 14.040342,5.65596 6.935369,-3.26305 17.50987,6.58878 22.299367,10.25004 14.235757,10.86578 20.905659,29.14625 13.210753,46.72248 -2.621503,3.55802 -19.135866,17.98182 -14.866245,25.21953 12.797802,9.0628 33.390061,-8.39176 47.935531,-1.77717 15.67002,8.30327 10.64824,45.06331 6.51504,60.45311 -0.0959,0.35765 -3.01971,18.72292 5.54903,10.45652 5.09921,-3.88617 5.20983,-25.84264 5.69283,-31.57602 1.58913,-18.55331 -3.99678,-42.5008 23.77788,-41.26194 13.69376,0.61574 38.98702,17.23334 34.4335,-4.9886 -3.54696,-17.31446 -21.97491,-35.27046 -5.04759,-53.503 6.0136,-6.47448 11.94609,-11.57738 20.15718,-14.88099 12.171,-4.89642 14.77775,10.90634 22.99991,-3.66126 1.10612,-8.1521 -7.03123,-9.88502 -10.50445,-14.58971 -6.7252,-9.11074 -11.4004,-0.3429 -17.48037,3.70181 -5.86612,3.9046 -11.27136,8.99644 -17.41401,12.42172 -14.70401,8.20003 -9.6048,-2.592 -13.78225,-9.14761 -1.93571,-9.89239 -23.85899,-30.82754 -35.14141,-26.9635 m -15.81382,82.98845 c 10.62243,2.14219 26.37357,2.44453 35.03449,-4.13688 11.79123,3.07869 -11.57001,23.84056 -17.09323,24.80288 -10.46389,1.8251 -22.21457,0.1143 -29.10569,-9.04437 -4.68995,-3.20037 -4.93698,-10.40858 -1.34578,-14.70401 2.7358,-3.27043 9.38727,2.42608 12.51021,3.08238" /><path
       inkscape:connector-curvature="0"
       id="path58"
       style="fill:#000000;fill-opacity:1;fill-rule:nonzero;stroke:none"
       d="m 167.57421,414.19325 c -11.97657,3.52015 -25.10031,-1.13618 -37.60747,2.42788 -13.63785,3.88059 -24.68133,11.78996 -38.599113,15.0686 -12.799895,3.01336 -22.381521,4.6106 -34.868554,-0.25614 -3.35549,0.34762 -8.174662,-0.50131 -10.278704,2.94932 -2.57791,4.23187 4.756965,9.40598 -1.06117,9.51942 3.992192,1.94852 23.44818,5.2473 24.379447,9.78105 -0.612917,-2.98408 -22.390669,-5.50344 -25.7425,-4.43679 3.834846,4.35629 20.282968,15.71446 26.739633,14.11172 3.331705,-0.82698 -8.099648,-4.67829 -5.430259,-3.50185 -3.635419,-1.60273 -6.588396,-4.45325 -9.380369,-7.18668 1.138012,1.44173 4.017806,2.36202 5.807157,2.14429 0.473867,-1.11239 -0.325669,-1.61371 -2.400438,-1.5021 -0.418979,-0.38239 10.71232,1.96865 9.996945,2.53583 -1.452704,-0.43911 -2.936511,-0.67329 -4.449592,-0.7044 1.765566,-0.20857 10.077448,1.98512 12.371769,3.21278 1.900956,1.01543 9.715186,12.12112 7.916688,12.57669 -8.586322,2.17356 17.84777,11.72409 20.86661,14.03853 2.35836,1.80582 2.73343,4.08916 6.44203,3.59334 2.50655,-0.33665 7.75385,-2.09123 5.58577,2.49924 6.49326,1.77654 11.12947,7.57089 16.34933,11.43501 6.59022,1.31548 12.9609,7.37513 18.25577,11.25754 5.88217,4.31786 17.80751,14.80331 19.36999,0.72818 1.39965,-12.61327 7.72275,-8.42348 17.21107,-2.10404 3.85863,2.56693 25.03627,15.48026 27.12385,7.53064 1.42526,-5.43574 -15.20034,-16.41885 -13.49698,-18.23015 1.31732,-1.40148 18.08196,6.60486 20.38909,7.48307 4.62157,1.76374 11.93449,7.77947 15.68518,4.27944 9.88717,-9.21936 -22.90662,-21.92778 -27.97645,-28.09171 -8.94492,-7.67335 3.87693,-9.31633 6.83906,-13.80069 5.21802,-7.90754 -7.92584,-10.74159 -11.14045,-15.16191 -2.65109,-3.64091 0.7355,-12.66999 -4.97835,-12.59132 -1.69421,0.022 -3.47441,0.64402 -5.16679,0.31469 -3.77264,-0.73184 0.70073,-5.83094 -2.98409,-6.93968 1.56797,0.47204 0.45741,11.15508 -0.78307,12.78526 -3.31523,4.35262 -7.61114,-12.99383 -7.33853,-15.1857 0.8032,-6.46947 6.95066,-12.24369 0.27261,-17.80568 -4.05257,-3.37562 -12.92614,-4.7094 -17.91912,-2.77368 m -37.57637,15.57906 c -0.73367,2.59255 2.01257,2.18638 3.49088,2.38946 1.6375,0.22321 0.44826,5.43758 0.86724,5.77605 -0.64951,-0.52326 -9.889,-10.25126 -4.35812,-8.16551 m 27.77885,2.17357 c 5.61322,2.22662 3.32439,8.20759 -1.83875,4.32335 -4.31603,-0.34214 -1.29536,-7.91486 1.83875,-4.32335 m -34.84477,-0.0585 c -1.49478,4.24285 0.408,7.79959 0.15918,12.02415 -10.00976,-10.24761 -4.57401,10.28053 0.70805,7.89473 -4.89418,11.08007 -27.140314,4.76794 -35.444877,2.21565 C 83.606456,452.56183 51.31764,443.43212 54.34929,439.976 c 6.377993,9.36756 36.105366,2.82125 45.149089,1.15448 -2.877964,-5.91327 14.618521,-6.43105 14.737441,-6.28834 0.57084,0.66963 -4.78441,4.50814 0.25432,1.88449 -0.94957,0.72086 -3.01702,3.24205 -0.69708,4.02329 3.03531,1.02641 1.12155,-3.77264 1.75642,-4.91065 0.20125,-0.3586 2.68951,3.53296 4.07086,2.53034 2.48826,-1.80765 0.50131,-7.70079 3.31158,-6.48228 m -70.763515,1.90645 c 1.174604,0.2104 13.383538,3.61895 11.727748,5.00213 -4.561197,-1.61188 -10.780015,-5.07349 -14.559972,-0.0604 3.798254,-3.17436 -0.481186,-0.98798 -0.268952,-2.56144 0.201256,-1.51125 2.259559,-2.90175 3.101176,-2.38031 m 114.919135,23.00724 c 0.84527,0.4263 6.48411,0.95139 6.46764,2.4846 -0.0494,4.69293 -6.0633,6.36336 -9.02543,5.99561 -3.32804,-0.40983 0.56352,-9.99878 2.55779,-8.48021 m -4.09282,11.6564 c 0.99896,-0.4574 1.72165,-0.22687 2.17173,0.68793 -0.45557,-2.56145 -11.43135,1.84972 -11.9967,1.20204 -1.32829,-1.52405 8.39788,-5.46502 9.82497,-1.88997" /><path
       inkscape:connector-curvature="0"
       id="path62"
       style="fill:#000000;fill-opacity:1;fill-rule:nonzero;stroke:none"
       d="m 204.62496,35.952822 c -27.12007,0.743106 -53.6095,0.974638 -78.59948,13.162023 -10.452,5.095901 -20.52914,14.992225 -32.319614,16.615152 -8.51816,1.023149 -28.73859,-8.456418 -31.483894,-17.565534 1.278937,4.251362 -1.686873,-5.091492 -1.75523,-5.296562 -2.904069,-2.793816 -7.662595,-6.846722 -12.041851,-4.083778 -8.399086,4.370436 -3.499435,15.472929 0.130099,20.780517 5.39138,7.894126 19.100258,13.77503 27.591957,17.92937 13.369299,6.540217 23.062757,5.122362 36.257853,0.02867 20.24689,-12.976797 38.51805,-23.885245 63.00307,-26.712136 11.2348,-1.298783 23.09363,-1.5678 34.18289,0.904075 11.61407,2.58654 17.44867,11.512636 27.67796,15.46852 2.59756,-5.55235 5.66921,-27.14874 0.59977,-30.002092 -8.37924,-4.718835 -23.96242,-1.338473 -33.24353,-1.22822" /><path
       inkscape:connector-curvature="0"
       id="path66"
       style="fill:#000000;fill-opacity:1;fill-rule:nonzero;stroke:none"
       d="m 760.43749,369.89386 c -5.9341,5.14926 -11.37018,-1.7431 -17.80008,2.82365 -2.81253,1.99878 -3.30389,5.3627 -4.15321,8.31752 -1.9721,1.74977 3.81748,9.68266 2.74361,5.29378 8.55987,14.06932 9.68043,29.15692 13.19998,44.40683 3.54401,15.34774 -4.21545,32.00502 -2.08327,47.81522 0.53138,10.74319 1.8098,21.49083 1.09611,32.2607 -0.63143,2.03436 -0.83153,4.10874 -0.60697,6.22092 0.95826,2.85255 -1.105,3.7241 -2.35897,8.14633 -4.97362,8.29751 -11.10115,22.08224 -9.20909,31.10234 -0.13562,-0.29793 0.83598,4.53117 3.22163,7.24588 6.59666,7.95067 19.80554,-3.13937 21.93772,-10.14512 1.29621,-4.24881 0.76706,-9.77381 -1.19171,-13.77361 -2.79474,-5.70065 1.39848,-6.92794 0.34462,-12.83091 -0.007,-14.36057 -0.18454,-28.72559 -0.0867,-43.08617 0.18454,-26.69345 -2.04548,-53.29353 -1.96321,-79.93362 0.0178,-5.85406 0.52471,-9.84941 4.56674,-14.25163 2.60798,-2.83921 6.97685,-4.28661 7.02577,-8.71551 0.0489,-4.74461 -2.71693,-6.08306 -6.65447,-6.72783 -3.22607,-0.52693 -5.70954,-6.12087 -8.02849,-4.16877" /><path
       inkscape:connector-curvature="0"
       id="path70"
       style="fill:#000000;fill-opacity:1;fill-rule:nonzero;stroke:none"
       d="M 627.08338,9.8757096 C 627.70306,9.2540465 637.1468,27.232781 637.94071,30.5173 641.0213,43.289111 637.5982,57.230995 630.29267,67.89232 615.09756,90.06827 587.67311,100.18118 561.47416,99.371439 533.22413,96.546237 504.71474,83.334906 486.03911,61.645991 477.00916,51.162851 471.08158,38.573183 467.88021,25.209406 466.4587,19.26995 466.64282,14.427313 460.151,12.364342 c -5.5138,-1.75214 -7.03034,1.791736 -6.71555,6.503705 6.05825,53.577856 76.07454,102.334853 128.82879,86.757643 26.52363,-5.870167 51.54656,-18.255913 60.12116,-45.519998 2.03327,-6.468068 3.22908,-13.678568 6.8086,-19.404204 3.30629,-5.290076 -2.4629,-9.202197 -4.415,-13.894368 -1.9422,-4.666433 -1.34628,-10.122814 -4.31996,-14.41902 -2.37381,-3.4310263 -10.38811,-6.4957858 -13.37566,-2.5123904" /><path
       inkscape:connector-curvature="0"
       id="path74"
       style="fill:#000000;fill-opacity:1;fill-rule:nonzero;stroke:none"
       d="m 175.74288,-228.69981 c -4.18309,0.29784 -7.42113,2.81991 -11.07155,4.52484 -3.82607,1.78894 -6.87127,0.7026 -10.85008,1.64957 -2.51062,0.59376 -5.81356,2.776 -8.35664,2.9421 -3.11393,0.2062 -8.02826,-3.07957 -11.25483,-3.6676 -5.02315,-0.91834 -6.64026,-3.41941 -11.3083,-4.91242 -4.30146,-1.37273 -7.51086,1.30972 -11.48775,0.96606 -8.63921,5.00215 -15.107638,10.39187 -20.291161,19.14372 -4.914325,8.3051 -5.135794,13.58408 0.427664,21.46151 4.221279,5.98158 10.454867,3.30676 5.970121,10.6687 -2.355973,3.86999 -9.801919,-0.53458 -10.113122,9.1337 -0.179466,5.83074 -10.328863,7.92516 -10.649611,15.83695 -0.238653,5.9033 4.305284,10.15322 -1.21999,15.64603 -6.36342,6.32715 -12.892942,6.50471 -21.068208,5.19498 -23.756386,-3.80507 -1.158895,30.625751 3.852799,37.386288 10.328864,13.933465 25.398313,22.750228 42.334978,25.47659 5.91093,1.878669 19.26781,3.537779 23.93394,-2.254785 1.37655,-1.704931 6.36724,-13.832277 5.36872,-15.218368 3.42513,0.824782 17.34523,-16.627375 14.48523,-4.702401 -1.16272,1.324996 -1.73739,2.892463 -1.71448,4.696673 0.29593,2.550714 4.91623,5.187343 6.16295,1.861487 1.24863,-3.314401 -2.97074,-7.791514 -0.45248,-11.140281 0.82669,-1.0978 9.51935,7.906067 8.47119,11.128825 -1.79848,5.525274 4.143,14.853708 9.13752,16.875569 14.83843,6.006396 35.28423,-3.446137 47.04501,-12.786026 10.14367,-8.051168 24.25087,-26.112361 26.95051,-38.906021 3.8337,-18.1872 -13.27861,-9.02296 -22.4123,-14.64179 -1.75839,-1.08443 -8.181,-8.68884 -6.2966,-10.48351 5.90903,-5.63409 4.08572,-6.99346 0.28638,-14.28094 -6.06367,-3.05093 -1.64765,-10.52169 -5.45081,-15.43411 -2.93638,-3.79361 -13.87619,-2.64426 -8.0779,-9.65873 3.4385,-4.15636 9.86302,-1.73738 12.40037,-7.76287 4.80931,-7.10802 0.24438,-15.91523 -4.36829,-21.65052 -6.80827,-8.4712 -18.50986,-18.96616 -30.38328,-17.09322 m -4.99451,23.83466 c 4.98305,1.93595 9.04778,5.97776 11.08109,10.91882 0.71787,1.7412 3.99981,13.49816 -1.10161,11.32356 -5.405,-2.30633 -10.16468,-7.5605 -14.09193,-11.73596 -4.93342,-5.25034 -6.65935,-14.97017 4.11245,-10.50642 m -42.4228,0.21384 c 3.98453,3.99408 -7.11756,13.39888 -10.05394,15.57157 -4.33583,3.20748 -1.2028,-20.18042 10.05394,-15.57157 m 17.44833,8.96568 c 7.93089,2.88864 15.62694,7.07556 21.20567,13.55353 3.38314,3.03565 6.32524,6.58871 8.59912,10.53124 3.96353,6.87891 2.16696,9.69309 1.95504,16.97103 -0.30357,10.38996 5.70092,15.64794 -0.29211,25.84125 -2.23761,3.80698 -8.99051,12.56647 -14.10148,10.31168 0.36084,0.90688 2.41898,2.93447 3.40413,3.2323 -5.19116,-1.56937 -7.5204,-8.8454 -9.62436,-13.55544 -1.07489,-2.41134 1.18181,-6.45506 -2.27197,-6.68225 -3.92344,-0.25966 -2.78364,-1.72403 -5.18352,-3.84326 -9.66064,-8.5342 -16.88321,21.97891 -20.16133,24.62508 -6.1935,-4.91432 -9.4449,-1.87103 -15.69567,-9.44489 -8.63539,-10.46442 1.39563,-17.6278 3.4385,-28.3786 1.68583,-8.84541 -5.56346,-22.23284 3.75924,-28.20105 4.84369,-5.91857 16.8393,-17.92182 24.96874,-14.96062" /><path
       inkscape:connector-curvature="0"
       id="path78"
       style="fill:#000000;fill-opacity:1;fill-rule:nonzero;stroke:none"
       d="m 306.7166,-38.742459 c -5.30917,1.478924 -8.53912,11.634063 -10.65781,15.94413 -5.15754,10.491636 -9.1955,21.5025571 -14.67499,31.8384078 -1.95875,3.6952332 -8.98364,14.7206942 -14.73316,8.8569262 -4.81066,-4.908282 -3.22995,-22.9150125 -4.17713,-29.630407 -0.55875,-3.967339 -1.19643,-25.742001 -6.08602,-23.708481 -7.06436,2.939154 -1.03442,23.228661 -0.42582,28.7206204 1.11127,9.9889682 0.43205,13.4951812 -4.96852,21.0663576 -4.6341,6.817175 -2.45933,14.959566 5.74745,15.424845 16.13731,0.913942 29.58679,18.727498 43.90244,25.268413 18.87705,8.624287 42.78286,7.961679 62.86466,13.353936 17.89871,11.94148 21.00404,25.889477 20.12541,46.428241 -0.18279,4.19375 -8.33972,44.133 3.57476,41.70483 0,-9.86434 0.88071,-15.99191 4.01096,-25.63815 6.81302,4.58217 11.2851,12.8575 16.5278,19.03699 2.06676,2.43441 6.61154,4.05458 5.83469,-1.36468 -0.52967,-3.68069 -3.91541,-6.5056 -6.07356,-9.22458 -5.6249,-7.08305 -12.89489,-16.07706 -12.89489,-25.30788 0,-16.61712 6.62608,-11.17501 18.31415,-5.0703 1.01364,-5.62905 -10.86137,-11.499046 -13.32278,-16.018903 -4.42223,-8.125774 14.03939,-7.080972 18.25599,-8.038534 8.69906,-1.979514 17.03878,-8.368798 25.92479,-6.491063 5.35694,1.134118 -3.56853,-14.415355 -13.20438,-8.877699 -10.82814,2.824911 -21.43402,7.778891 -32.77105,5.363177 -11.77946,-2.511263 -22.44765,-13.291621 -33.59774,-18.208213 -14.40913,-6.351895 -13.23762,-7.928445 -2.99524,-19.078534 2.9807,-3.244494 6.22311,-6.35605 10.14268,-8.458116 4.40769,-2.365863 7.61479,1.979515 10.20083,0.504745 3.09079,-1.761415 -5.7516,-5.739139 -6.24804,-5.915696 -3.66407,-1.31483 -7.61687,0.695842 -10.70142,2.401175 -7.64388,4.229057 -13.27501,11.270563 -20.59277,16.087452 -15.80081,10.404396 -41.66121,6.437058 -54.90921,-6.989578 -6.21688,-6.380975 -10.72843,-5.234393 -5.12638,-15.210899 5.40264,-9.61716 9.54446,-19.12215419 13.51595,-29.3832278 2.12076,-5.4753422 6.25012,-22.8090782 11.62576,-24.8779102 9.9225,-3.817784 5.91569,-8.036457 -2.40741,-4.507395" /><path
       inkscape:connector-curvature="0"
       id="path82"
       style="fill:#000000;fill-opacity:1;fill-rule:nonzero;stroke:none"
       d="m 829.19149,-32.582899 c -2.99711,-0.129203 -2.7485,-6.994568 -6.13322,-6.638281 -2.79156,0.2956 -10.06607,-0.381736 -10.06215,3.621592 0.0215,10.950913 -16.98821,9.566877 -25.60955,7.707141 -12.3467,-2.660403 -23.59908,-8.678119 -35.88509,-11.481427 -5.74952,-1.309647 -11.81422,-1.06886 -16.9745,2.170997 -8.00275,5.023247 4.22062,10.990066 3.76645,12.491558 0.60686,-2.002642 -2.66627,-4.946899 0.77522,-5.982479 3.55503,-1.072774 8.27289,0.771301 11.53428,1.934126 4.20301,1.49562 22.06627,6.679391 22.87085,12.468067 2.32369,16.70239303 -23.87119,34.30529 -35.85768,41.562179 -5.62815,3.406255 -54.31998,23.929917 -54.22993,28.316939 0.13116,6.342681 41.57393,-5.56355 45.68493,-6.896687 6.60304,-2.135761 16.92947,-7.554447 21.92727,-0.03915 3.97984,5.986395 -2.67411,21.917487 -4.14232,28.271914 -3.61572,15.641364 -10.62399,40.033283 -27.0347,46.489503 -1.47996,0.58141 -7.83438,3.04214 -5.36779,6.21935 1.23722,1.60329 9.98581,-1.94196 11.82597,-2.16317 8.04385,-0.95923 15.55327,-15.56697 23.0901,-10.06998 5.93746,4.33416 0.96707,7.76978 2.09074,12.55616 0.15661,0.6695 8.99329,-1.2333 11.38942,1.71683 11.00768,13.55258 -13.72094,15.86062 -13.79142,22.87476 -0.0568,5.46567 16.62213,-4.4066 17.7184,-5.57138 3.77037,-4.00724 7.28038,-13.96956 14.0831,-13.28048 6.09798,0.60882 20.48647,27.45755 25.93452,22.33838 0.20163,-0.19185 -6.5776,-14.9934 -6.65003,-18.0003 -0.24862,-10.41061 -0.462,-20.65482 -2.33544,-30.95189 -3.91132,-21.49464 -7.9029,-43.658787 -9.53164,-65.423579 -1.04928,-13.981305 -6.02946,-35.3369554 4.35374,-46.806637 7.42916,-8.210248 18.73245,-5.258161 26.26536,-11.888612 2.0555,-1.804923 7.08853,-6.148877 10.01126,-6.062741 1.18631,0.03132 1.10996,-9.445505 0.28385,-9.4827" /><path
       inkscape:connector-curvature="0"
       id="path86"
       style="fill:#000000;fill-opacity:1;fill-rule:nonzero;stroke:none"
       d="m 752.0311,-192.59131 c -1.11363,0.62695 -12.71221,7.77312 -12.51987,8.18435 -0.29223,-0.62269 1.59925,-3.30583 1.69595,-3.25801 -0.3868,-0.18915 -1.98286,2.02218 -2.04024,2.09975 -2.50037,3.42485 -1.68108,-0.37404 -3.33772,0.59826 0.0298,0.51431 0.0776,1.02862 0.14558,1.53975 -0.57594,0.84691 -2.25595,0.83097 -3.04867,1.87235 -1.15295,1.51424 -2.87654,3.11031 -4.28345,4.40246 -1.57057,1.44517 -4.18994,2.21027 -5.29826,4.04755 -1.2539,2.07531 2.01049,3.13156 -1.5982,4.18994 1.6492,-0.4835 -0.0266,-9.83249 4.76376,-7.27156 -0.77146,-0.4123 -2.23045,-0.45374 -3.11881,-0.5345 0.65671,-0.24334 4.9646,-1.85535 5.26213,-1.51212 -2.5163,-2.88822 -8.75286,2.87972 -11.22347,2.37816 1.06582,0.21571 7.02397,-0.79378 4.70107,2.45148 2.27933,-3.18469 -7.08348,-1.37398 -7.30238,-1.30916 -2.66294,0.78847 -5.87845,1.63539 -8.20773,3.21339 -3.3579,2.26764 -11.48913,5.64255 -11.9875,10.4435 -0.11476,1.10832 10.44563,5.3822 11.65808,5.24938 3.82334,-0.41868 1.8341,2.96154 -1.95629,2.2007 -1.68108,-0.33898 -5.04642,-4.36421 -7.54678,-5.24619 -6.82844,-2.41004 -13.86835,-3.58212 -20.77224,-5.58305 -3.39509,-0.98399 -6.35876,-3.2612 -9.52114,-4.80413 -1.58544,-0.7736 -3.19107,-1.52381 -4.8307,-2.17627 -0.64289,-0.25609 -4.16762,0.2391 -3.34409,0.79591 0.20403,0.14133 3.57468,1.2539 3.03062,1.9988 -0.41655,0.56745 -2.11676,0.0978 -2.03069,1.09132 0.13283,1.5355 2.01156,3.58106 2.81172,4.66175 1.15932,1.56312 6.16323,10.46369 4.85089,12.13414 -5.89121,7.49683 1.63326,11.09701 7.28006,16.16575 6.09629,5.47146 9.55195,10.67409 16.73319,3.00404 0.79591,-0.85116 6.312,-7.01865 6.91983,-3.92428 0.2529,1.28365 3.33133,2.39304 3.33133,2.41535 0,2.61088 2.24108,0.0882 2.36329,0.0574 0.57594,-0.14026 0.45586,2.11782 0.67264,2.36222 0.97443,1.10832 1.17952,-1.45367 2.00624,-1.45367 1.98392,0 -0.77784,4.41628 0.43886,5.02091 0.70984,-0.38254 1.17421,-0.99036 1.39311,-1.82134 0.30285,-0.65989 2.32184,4.86258 2.121,4.80308 2.52374,0.75871 1.31128,-6.1218 2.92648,-6.1218 1.90423,0 -0.51856,6.90495 0.62589,7.89426 5.35989,4.63943 2.45254,-7.01015 4.43009,-5.85827 1.92867,1.12639 -1.3336,6.2525 -0.57276,7.82625 2.93923,6.06548 5.26319,-5.25363 5.12399,-5.4194 0.22847,0.2731 -1.84472,12.13733 2.06894,9.86756 1.74908,-1.01268 0.11901,-6.86245 2.67038,-7.65517 0.47712,-0.14876 -1.49299,8.46702 -0.55894,9.25336 5.62129,4.73401 2.0158,-7.1196 5.29613,-7.1196 0.95424,0 -1.83516,8.80493 -0.17852,10.10877 4.74782,3.73514 2.6927,-8.54777 5.6893,-7.46495 0.60783,0.21783 -0.64182,7.82731 0.11158,9.13221 2.98705,5.16437 4.64156,-7.05371 4.95397,-6.88582 2.32609,1.26665 -0.64395,7.42776 2.48017,9.11947 5.66805,3.07099 1.10938,-7.4182 2.91054,-7.4182 2.08275,0 0.97017,9.49245 3.29414,10.66134 4.19419,2.11569 2.36541,-9.29268 2.55456,-9.19704 3.45353,1.72889 0.007,9.98976 4.40565,10.44243 3.68625,0.37936 -0.11158,-7.68067 1.01268,-8.86337 1.36973,-1.43986 1.13914,13.850284 6.26632,9.02489 2.32821,-2.19007 -4.33659,-11.82385 -0.75022,-12.97149 0.62589,-0.19977 2.94879,14.15207 3.67563,14.8821 4.42797,4.449217 2.58431,-9.76873 2.33246,-9.53177 1.0977,-1.03606 2.70652,9.72729 4.4216,9.91644 4.57779,0.505809 1.07537,-7.28325 1.07537,-9.49883 0,-1.81815 3.20489,2.72564 3.21339,2.74264 0.74171,1.8766 0.99993,4.157 1.90104,5.9369 0.55788,1.10088 3.22189,0.24972 2.99661,-0.91811 -0.44843,-2.3314 -1.0435,-4.8137 -1.94673,-7.01546 -0.70346,-1.71083 1.99667,0.48349 2.26445,1.01906 0.49731,0.99568 1.84791,7.2673 3.14113,7.01546 5.74669,-1.11894 -0.63545,-5.61492 0.56638,-8.53183 0.94893,-2.32928 4.31002,7.72955 5.28126,7.11535 0.79059,-0.49837 2.49292,-1.36229 2.08168,-2.33034 -0.35279,-0.82991 -2.45573,-5.34608 -1.18695,-5.34608 2.15076,0 1.49405,7.34594 3.59168,6.15899 3.63206,-2.053 0.40911,-3.72451 0.40911,-6.68818 0,-1.82453 4.34402,4.75313 4.08687,4.70319 3.90302,0.74384 2.14119,-5.78175 1.82134,-5.84126 2.25383,0.41017 1.18058,5.90608 3.87965,3.00511 1.76609,-1.90635 -0.543,-1.82559 -0.0744,-4.09112 0.33472,-1.61625 3.39296,2.37923 3.32814,2.35585 2.03175,0.70665 1.06051,-4.37909 1.22415,-4.46729 1.18696,-0.64182 1.59819,1.88192 2.3516,1.88192 1.83515,0 -0.0457,-5.38327 -0.0308,-6.06548 0.0638,-3.04868 2.25808,-1.28046 1.27303,1.70658 -0.2646,0.80335 2.64169,2.1125 3.0763,1.39629 0.90005,-1.48236 -1.80221,-6.76893 1.11576,-6.76893 1.73527,0 -0.92555,3.4089 1.02862,3.71707 3.05293,0.48137 0.7991,-3.8159 1.97436,-5.04217 1.6067,-1.67789 0.68434,3.11137 2.00306,2.77983 3.04442,-0.7619 0,-4.16124 1.7799,-4.80413 1.62582,-0.58764 0.71196,2.34628 1.27728,2.65019 2.44404,1.31872 1.3134,-4.17931 2.00305,-4.42691 1.65557,-0.60569 0.16258,2.55456 2.33246,1.62476 1.14552,-0.492 0.12114,-3.58424 0.76935,-3.36003 0.49837,0.50263 0.80972,1.09663 0.93192,1.78097 1.91379,0.89367 1.1147,-3.14219 1.44092,-3.38341 0.41443,0.55044 0.91493,1.00843 1.50043,1.37292 1.58119,-0.57064 -0.24334,-1.90317 0.68646,-2.62363 0.57063,0.19446 1.1402,0.40167 1.70445,0.61951 -0.29328,0.21678 2.13907,-3.31327 2.13907,-2.4451 0,-0.81291 3.28883,-3.09756 3.614,-3.38128 0.65989,-0.57595 9.27673,-7.24606 8.92819,-7.57441 -1.08388,-1.02225 -3.68625,2.68951 -3.58637,2.69801 -0.25928,-0.0212 -1.16995,-0.84798 -1.3846,-1.07219 -0.0244,0.22634 0.54619,1.11469 0.33685,1.29322 -0.39423,-0.17853 -0.80972,-0.25503 -1.24327,-0.22953 0.21996,0.33791 0.43993,0.67583 0.66202,1.01268 0,0.73215 -2.14545,-0.32729 -1.96161,-0.55894 0.1562,0.45693 0.32729,0.90855 0.51431,1.35379 -0.52069,-0.19765 -1.04988,-0.36661 -1.58863,-0.50581 -0.0255,0.44736 0.0829,0.85754 0.32517,1.22839 -0.43781,-0.3496 -0.90643,-0.65032 -1.4048,-0.90535 1.03181,0.0754 -1.66195,1.1912 -1.09982,0.40698 0.15515,0.38255 0.3241,0.75978 0.50794,1.12957 -0.42505,-0.38998 -0.91917,-0.66414 -1.47918,-0.81928 0.0946,0.3241 0.19659,0.64501 0.3071,0.9638 -0.47181,-0.13389 -2.50567,-1.84472 -2.76708,-0.4718 -0.0266,0.14345 1.23902,1.14976 0.50475,1.41541 -1.09982,0.39955 -2.30803,-1.3304 -2.70439,-0.72789 -0.48562,0.74383 1.19758,0.66732 1.3846,0.94998 0.75766,1.14658 -4.02842,-0.66414 -3.81058,-0.59082 -0.55256,-0.19021 0.99569,2.18264 0.65989,2.48868 -0.93617,0.8416 -2.16244,-2.07319 -2.75751,-1.83622 -0.23378,0.0946 -1.59713,3.26757 -1.48449,3.5683 -0.57595,-0.18277 -0.94255,-0.59932 -1.09982,-1.24753 0.33366,0.0276 0.6482,0.11902 0.94361,0.27416 -0.1222,-0.77359 -0.53131,-1.35697 -1.22308,-1.74696 -0.93511,0.3156 0.10626,3.44079 -1.06582,3.44079 -0.59401,0 -1.43773,-3.41847 -2.33459,-2.46636 -0.61314,0.65139 0.57913,3.32709 -0.4378,3.60656 0.28159,-0.0776 -3.64481,-4.34083 -3.56405,-2.1497 0.0329,1.48662 1.27196,3.08587 2.33459,4.04224 -0.22847,0.22527 -1.29109,1.19652 -1.58544,0.92342 0.29116,0.27522 0.35704,-2.43342 -0.068,-1.78946 -0.91811,1.39629 -2.6842,-2.1667 -2.6842,-2.59494 0,-2.05087 -3.09649,5.13887 -0.99355,5.13887 -1.44305,0 -1.48024,-3.89772 -2.38241,-4.54061 -1.60457,-1.14232 -0.14665,6.86032 -1.54931,6.95808 -1.28259,0.0935 -1.78947,-6.55003 -2.99874,-5.41515 -1.02012,0.94999 0.5175,6.40127 -1.11894,6.69774 0.12964,-0.0244 -2.70864,-2.69801 -1.80647,-1.9191 -0.31347,-0.26991 -0.46118,-2.5163 -0.81078,-2.39091 -0.45268,0.16152 -0.92662,3.02955 -0.64396,3.44929 0.3071,-0.23484 0.54938,-0.52707 0.72578,-0.87773 3.14856,0.43567 -3.95085,2.19857 -3.10287,1.57268 -0.0106,0.65777 0.0383,1.31235 0.14664,1.96055 -0.53557,1.22627 -2.01899,-1.95842 -2.07744,-1.99774 -1.99774,-1.35378 -2.36859,3.02636 -2.8404,3.19426 -1.45261,0.52281 -1.18377,-2.24214 -1.82347,-2.41429 0.43037,0.11583 -2.86378,1.28897 -2.53436,0.70027 -0.35173,0.62908 0.60038,2.71076 -0.66733,2.71076 -0.6854,-0.53237 -1.19121,-1.19758 -1.51956,-1.99455 0.74809,0.62164 -2.70757,-0.36023 -2.2177,-0.36023 -0.81398,0 0.13601,2.57262 -0.61633,3.15707 -1.32934,1.04137 -1.17101,-1.80859 -1.56631,-1.83622 0.57382,0.0404 -3.53005,0.42186 -2.70439,-0.002 -0.0467,0.0234 -1.44411,5.226 -2.39728,1.65239 -0.1509,-0.56532 -2.57369,-1.52594 -3.04549,-1.40373 -0.98825,0.25503 0.6822,3.49392 -1.64495,2.64381 -2.85847,-1.04668 -2.50036,0.49731 -4.55229,0.49731 -2.89779,0 -0.27629,-3.42697 -3.90197,-1.60244 -1.59182,0.80441 -4.60968,-0.004 -5.83276,0.82141 1.50999,-1.01906 20.50977,-10.33936 17.60242,-13.06712 -1.36229,-1.29428 -8.25449,5.34076 -9.27143,6.07397 -1.29321,0.9298 -11.04175,5.07298 -11.27872,5.57348 1.20502,-2.53861 7.72211,-6.0846 9.86649,-8.17904 1.91698,-1.87554 8.80281,-7.95483 7.96439,-10.75379 -0.0871,-0.29222 -9.47969,9.39044 -10.54338,10.46263 -1.95842,1.97542 -3.93385,3.81908 -6.30457,5.29188 -0.64608,0.40168 -7.08347,2.42067 -6.9804,2.26553 1.27941,-1.91911 21.79767,-19.62567 17.97434,-22.6159 -0.88623,-0.69602 -10.37018,12.82804 -11.95137,14.64619 -2.2262,2.55881 -4.62136,4.9104 -7.73805,6.34389 -1.0265,0.47286 -8.0664,1.13701 -7.98989,1.01799 0.48881,-0.74596 2.69376,-0.28478 3.42059,-0.46755 -0.01,0.002 -0.96805,-0.39636 -1.05943,-0.42824 4.25263,-1.54294 7.8305,-5.38858 10.67727,-8.81768 1.88192,-2.26871 10.57633,-14.60581 8.41495,-17.38883 -0.79697,-1.02438 -9.16622,14.43897 -10.35955,16.09348 -2.04875,2.83934 -5.04748,5.08255 -7.95483,6.97721 -0.51856,0.33898 -7.35763,2.76815 -7.25775,2.46849 0.55682,-1.67364 5.46828,-3.3951 6.88795,-4.83921 2.20814,-2.24639 4.49704,-4.69256 6.23338,-7.33212 2.58643,-3.92747 4.29195,-8.38626 5.71799,-12.84398 0.0414,-0.12964 1.018,-7.42989 -0.034,-6.03891 -3.76595,4.78289 -4.91784,12.43593 -8.29168,17.72568 -3.80846,5.96984 -9.78361,11.96094 -17.37927,11.86743 4.95609,0.0595 13.34341,-11.77073 15.12756,-15.65463 0.78422,-1.70445 8.01221,-19.64054 4.71169,-20.20904 -0.57701,-0.0967 -7.15998,18.78406 -8.80705,21.55008 -1.98499,3.3324 -12.33073,15.28908 -17.28895,11.84085 1.67683,1.1657 1.70552,-1.26984 1.62582,-1.14764 0.53238,-0.82991 2.12313,0.17003 2.8404,-0.77678 0.96487,-1.27302 1.28259,-2.8319 2.52268,-3.95828 2.70439,-2.46211 4.72444,-6.21 6.60848,-9.29693 3.57468,-5.85507 7.72211,-18.37601 4.56505,-25.08331 -0.93405,-1.98605 -1.40267,1.69064 -1.43561,1.91379 -0.8331,5.82213 -1.3963,11.65064 -3.4036,17.22625 -2.03174,5.64361 -10.20547,21.6574 -18.4929,18.9392 -0.17427,-0.0574 2.2804,-0.41548 2.23258,-0.64289 -0.36767,-0.16895 -0.61951,-0.45161 -0.75659,-0.84797 0.44949,-0.6769 1.64813,0.74277 2.44085,-0.54938 1.59288,-2.59706 2.69483,-5.42684 4.38334,-8.03134 3.17513,-4.9019 5.26744,-10.20653 6.4629,-15.91071 1.04031,-4.96354 1.51637,-9.98339 1.72358,-15.04256 0.22528,-5.54903 -2.32396,-1.57375 -3.50136,-5.29825 0.17321,0.54831 12.35198,-2.02962 11.2511,-3.088 -0.27734,-0.26566 -8.62322,2.49611 -8.62322,0.88198 0,-1.11576 14.98623,-3.9009 14.98623,-7.98245 0,1.37716 -12.98636,7.12491 -14.15844,6.02403 1.63751,1.54718 14.51124,-12.33391 16.22419,-11.79835 -3.34302,-1.04456 -14.04262,12.013 -16.85433,9.87818 -1.72252,-1.30809 10.32449,-8.42451 11.2426,-9.79955 -0.509,-0.31241 -1.04775,-0.22634 -1.61626,0.25716 m -11.23835,17.19012 c 3.39829,1.3676 -1.14551,6.92833 -1.30278,9.43294 -0.17958,2.84891 -4.97628,1.8681 -6.99952,1.84579 0.59507,-5.28658 -0.14239,-14.69933 8.3023,-11.27873 m -21.73603,1.86172 c 0.0191,0.57807 -0.3953,4.52148 0.75446,4.80627 -1.36335,-0.33579 -4.57355,1.24965 -4.54698,2.74051 0.0723,4.03373 0.57488,4.37377 -1.06263,8.45533 -0.38467,0.95742 -0.0967,4.63305 1.3166,2.22726 1.12426,-1.91591 1.55037,-4.20163 2.68313,-6.14623 0.11583,3.33877 -3.73301,11.70696 -1.35379,13.4943 0.93937,0.70665 -0.55044,4.35677 -0.84691,5.05598 -0.55257,1.29853 -1.80753,3.55449 -3.48648,3.73301 0.11583,-0.0128 -3.62037,-0.17215 -2.8946,-0.99249 3.03593,-3.45035 3.01468,-3.99442 3.4206,-8.83787 -0.0903,1.08494 1.74802,-1.94249 1.35804,-3.09331 -0.39105,-1.15189 -1.51318,0.21465 -1.78947,-1.42605 -0.31772,-1.88085 -0.37404,-3.83502 -0.61526,-5.72968 -0.30922,-2.42067 -0.42292,-5.29826 -0.42292,-7.05266 0,-1.31553 -1.41649,-0.9383 -2.15501,-1.39311 -2.15288,-1.32828 0.1562,-1.39097 0.1562,-2.41535 -0.65564,-0.0319 -1.29215,0.068 -1.90847,0.30179 -0.31242,-0.69815 3.25907,-0.99037 3.43122,-1.25284 -0.11264,-0.18596 -0.28691,-0.2529 -0.52388,-0.2019 0,-0.48881 2.19858,-1.2454 2.28572,-1.05625 -0.27097,-0.58763 -3.62675,5.95921 -0.78104,4.94122 -1.03287,0.36767 6.79763,-11.73884 6.98147,-6.15793 m 17.67467,22.11753 c -0.34535,1.11894 -5.70312,9.89837 -5.36095,9.89837 0.27735,0 4.50873,-6.4289 4.50873,-6.83482 0,2.36222 -3.63206,6.58935 -4.86046,8.55946 -1.07963,1.73315 -2.37603,3.31646 -3.94128,4.63518 -1.38248,1.16464 -4.75101,1.50893 -5.62237,2.31122 0.27416,-0.25397 2.10401,-0.30392 2.10401,-0.85648 0,-0.61739 -1.57269,-0.48031 -1.61626,-1.16252 0.20296,-0.36766 0.48668,-0.65776 0.84904,-0.86816 0.17002,-0.0149 0.73853,2.04874 1.61094,1.03393 0.40699,-0.47074 2.05937,-4.36208 1.64601,-4.8732 -0.31241,0.3666 -0.69814,0.52387 -1.1572,0.46755 0,-1.36866 3.47479,-7.60097 4.37059,-8.90269 0.48668,-0.70983 7.94101,-5.2345 7.86025,-5.31313 -0.0202,0.65457 -0.15089,1.29002 -0.39105,1.90529 m -27.58474,1.66832 c 0.86605,4.35358 -3.32071,9.89518 -6.48096,6.57554 -0.59401,-0.55894 -0.45693,-1.01269 0.41549,-1.35804 2.70757,-2.03918 0.18702,0.61101 2.33459,0.70346 0.51537,0.0223 3.32177,-7.95377 3.73088,-5.92096 m 16.55467,2.67995 c -1.07006,3.36959 -5.86889,13.88322 -11.13527,10.84942 0.72259,0.41655 2.26021,-0.30179 3.16451,-0.3326 -0.39849,-0.23484 -1.82985,-0.72578 -1.82985,-1.2114 0,2.02006 2.71289,-2.104 2.86485,-2.56518 0.52387,-1.59713 1.06475,-6.19724 2.53649,-7.17805 0.60038,-0.39423 4.74994,-0.66414 4.39927,0.43781" /><path
       inkscape:connector-curvature="0"
       id="path90"
       style="fill:#000000;fill-opacity:1;fill-rule:nonzero;stroke:none"
       d="m 550.61283,-243.53591 c -1.57958,3.18095 -5.01472,5.20475 -8.15088,6.56525 6.62335,0.74803 -0.0169,4.92151 -2.30825,6.79159 -4.38288,3.57796 -4.48818,9.16883 -7.88338,13.49967 -0.87028,3.67721 -4.98203,10.25336 -2.18236,13.85068 1.4888,1.91608 4.20616,0.69357 4.97114,2.69074 0.28687,0.74319 2.12063,5.28464 3.21726,5.09339 1.07605,-0.1864 -2.10005,-4.33568 0.0738,-3.94108 0.46116,0.0847 3.93261,1.83255 3.10469,2.58906 -0.93201,0.85212 -1.36171,-1.00101 -2.14484,-1.04095 0.0399,0.002 0.79524,3.68569 0.62215,4.1529 -0.57494,1.53117 -7.44037,-1.5118 -6.80612,0.42607 0.19125,0.58825 4.20617,2.85414 5.13213,3.85272 2.6169,2.8263 1.02642,-3.55496 3.85393,-1.56263 2.40629,1.69578 -2.74036,8.98 -6.37158,4.98687 0.25055,1.37502 5.11034,5.63324 5.99999,6.37279 1.78535,1.47791 -4.99777,2.57333 -5.51825,2.96308 3.01755,-0.15856 8.63141,10.00643 2.21747,7.01915 -8.3736,-3.89993 -12.21906,9.30682 -19.28299,11.05949 1.20798,-5.96247 5.00866,-11.73611 10.64068,-14.33485 -3.13737,-5.56303 -10.28604,4.88157 -9.95559,5.46378 -0.72383,-1.27577 3.70021,-7.29876 5.02924,-7.58078 6.0363,-3.14585 -0.34618,-4.94451 -2.69437,-0.0496 -5.05587,5.85716 -7.2927,13.65944 -7.1644,21.308 -2.25741,9.06958 -2.97639,19.88941 -1.86523,29.11029 1.05668,8.76335 2.71131,17.46738 7.04214,25.259982 3.00302,5.404466 7.03731,12.373989 11.48071,16.650357 4.91667,4.73027 6.0242,6.797645 5.95641,13.579555 -0.0254,2.630214 -0.70203,8.021366 -0.0811,10.356241 0.33286,1.252771 3.87088,1.763563 5.24106,2.908608 -2.93524,-2.452284 -3.6058,5.906786 -7.45248,3.224524 2.744,4.340519 17.92734,6.953788 14.27917,-0.847285 -1.40891,-3.013913 1.78051,-4.439772 0.21061,-6.491412 -1.1753,-1.533585 -1.001,-2.495859 0.96954,-3.381877 -0.30139,-0.41638 -3.17369,-3.914456 -0.37159,-3.378245 -2.52491,-2.196889 2.50554,-5.848687 -1.32177,-7.042148 2.88682,-1.417386 -0.41638,-3.105904 0.01,-4.919093 0.12347,-0.526527 9.98828,-4.6407 11.39962,-5.875316 3.97376,-3.477499 5.96004,-8.528527 10.01611,-11.624747 4.26306,-3.252364 7.2685,-7.803494 9.8273,-12.442984 2.77062,-5.02561 5.09944,-10.79683 6.35221,-16.42038 0.95501,-4.29331 -2.88319,-8.92191 -1.67278,-12.20695 0.23361,-0.6391 3.42787,-4.29816 3.50776,-2.03349 0.01,0.25903 -3.09985,7.96085 -0.72382,7.03731 4.86825,-1.89308 -1.10874,-9.91323 -0.6621,-12.18275 0.19246,-0.97679 2.82388,-1.44038 3.05991,-3.72805 0.0835,-0.80855 -0.53016,-7.99837 -0.76619,-8.02379 0.33771,0.23724 0.66452,0.48901 0.98164,0.75167 0.45754,0.16098 0.94775,-6.10651 -0.0617,-6.93927 1.25278,1.03369 -4.60317,11.81115 -5.47103,13.18497 -3.11317,4.92756 -7.01431,9.27897 -10.66611,13.79863 -8.87228,10.97476 -21.09255,10.63706 -33.3104,14.83596 -1.33992,-3.34072 3.94351,0.73472 2.27678,-3.84062 4.86946,-4.58502 12.44177,-2.73431 17.92733,-6.07987 13.83616,-6.43695 22.08509,-20.16659 28.53171,-33.35277 -1.26245,-4.74842 -4.59954,3.60823 -5.18901,4.84647 -2.77788,5.83416 -7.0712,11.63686 -11.41414,16.38044 -4.81742,5.73612 -11.09943,10.54749 -18.61,11.94187 -1.17047,0.32681 -9.61184,3.9072 -10.2582,2.78636 -1.96207,-3.4085 20.87952,-12.94772 22.98926,-14.3869 3.34193,-2.28161 23.11756,-27.25352 18.35703,-27.78246 -2.36151,-0.26266 -6.87753,11.10669 -8.24408,13.1668 -3.63122,5.47467 -8.06737,10.54386 -13.66671,14.07461 -4.30905,3.20032 -10.38045,3.56465 -14.34695,7.25518 -2.28041,2.12063 -6.39095,2.58422 -8.2344,4.35868 1.35203,-1.3024 3.89872,-1.48638 5.33063,-2.94855 -0.0617,-0.86181 -0.65725,-1.27577 -1.78898,-1.24067 2.88319,-5.20475 7.85191,-8.57573 13.18133,-10.93361 1.78535,-1.2104 16.10931,-10.49422 14.71613,-11.69011 -2.71131,-2.32761 -17.88134,15.59973 -22.72539,13.70665 -4.84889,0.64757 -1.63889,-5.39115 -0.1864,-7.04941 1.14625,-1.31087 10.33445,-3.92051 9.41575,-5.44078 -1.42344,-2.36271 -5.52914,3.64575 -7.7236,1.66794 -2.00202,-1.80834 0.80129,-7.54809 1.04458,-9.58521 0.55194,-4.59833 2.71736,-8.79966 2.80693,-13.48393 1.74662,-4.99414 0.25056,-10.23641 1.09179,-15.33586 -0.29534,-2.10126 -3.04054,-7.1305 1.14262,-6.53862 2.13637,-1.06878 3.04176,-4.98203 0.31108,-6.04961 -2.15332,-0.84365 -0.12952,3.23663 -1.87492,3.02723 -0.74682,-0.0896 -3.9193,-2.46197 -4.32358,-2.16784 -0.76134,0.55437 0.34255,5.99151 0.3837,7.48879 0.0496,1.78898 -3.2802,3.34193 -3.3383,0.97437 -0.0242,-1.00463 2.08674,-4.188 0.15614,-4.49303 3.35646,-0.68509 -2.91466,-2.53217 -2.23925,-3.11437 0.73714,-0.3026 1.50938,-0.42122 2.31914,-0.35344 -1.03006,2.25741 -11.98787,-4.64675 -11.80268,-4.63949 -5.81842,-0.22877 1.44644,-10.631 0.80492,-11.31004 -0.85576,2.0468 -2.27919,8.08673 0.87997,9.17972 0.73714,0.2554 6.50351,3.2681 4.10933,-0.90296 4.82952,-1.89429 5.65139,3.32499 9.59611,3.86604 0.046,0.25903 -1.00343,-3.3613 -1.08211,-3.39882 1.58442,0.77587 8.54184,3.89509 4.51845,-1.22009 -2.54306,-7.25397 -0.68146,-15.51621 -4.58865,-22.37801 4.62859,0.0884 1.18378,-2.8735 2.45833,-6.09561 1.50817,-3.81883 0.9998,-4.71332 -3.01875,-2.24409 m -12.40062,76.84631 c 0.046,4.15049 3.00302,3.22332 3.21605,-0.0908 2.42203,0.75046 2.8493,4.9191 -0.18882,5.00867 -2.18479,0.0654 -3.46661,-0.88239 -5.58724,0.35828 -1.91123,1.1172 -3.85515,3.69053 -6.31832,3.46297 -9.95802,-1.9427 10.0258,-11.44198 8.87833,-8.73914 m -12.33768,7.77929 c 4.79443,3.1059 -1.06031,5.56666 -3.08048,8.16903 -5.8971,-0.006 1.92212,-9.25114 3.08048,-8.16903 m 7.42343,5.86563 c 7.11356,2.09158 -5.11034,11.28583 -8.34939,4.75327 1.3375,-2.58059 4.85979,-7.45369 8.34939,-4.75327 m 55.70171,3.82247 c -6.17428,10.93723 -11.5848,19.95839 -22.12744,27.47018 -2.62538,1.87008 -22.55957,10.94087 -22.89243,7.45853 -0.62215,-6.47931 7.35685,-6.11982 12.16701,-7.19103 5.58724,-1.24551 11.28583,-4.01008 15.70745,-7.67156 4.34536,-3.59854 7.73087,-8.18114 11.03528,-12.71169 0.87028,-1.19467 4.74964,-8.7924 6.30985,-9.32982 0.26266,0.64273 0.19609,1.30119 -0.19972,1.97539 m -64.0983,3.52712 c 6.14402,0.0968 -0.45149,8.06373 -2.42082,3.76195 -3.31167,-1.26004 0.53137,-6.89327 2.42082,-3.76195 m 8.05162,2.9195 c 4.82711,0.93202 2.04317,8.88681 -3.07322,7.12567 -8.15572,-2.80694 2.14121,-8.2114 3.07322,-7.12567 m -7.29028,6.92716 c 3.25721,1.04095 7.47427,1.44523 2.28041,4.26669 -3.24752,1.71393 -8.63504,-5.81601 -2.28041,-4.26669 m 58.68416,3.55012 c 1.16925,2.57333 -1.47912,3.13859 -3.12406,4.19285 -1.27214,0.81582 -1.55295,1.99839 -1.02158,3.41335 -2.05648,2.18842 -4.23401,4.26669 -6.55678,6.17308 -7.8047,6.41394 -18.87992,11.09096 -29.13449,11.20473 0.31349,-7.78654 12.90899,-6.61124 17.71672,-9.63726 5.10066,-1.53963 9.72683,-4.36714 13.65581,-7.93663 1.24309,-1.1281 7.43674,-9.51743 8.46438,-7.41012 m -61.30106,1.28425 c 6.28565,3.58643 -6.49988,6.47688 -3.47992,0.46842 0.61852,-2.05043 2.14605,-1.61105 3.47992,-0.46842 m 8.49101,4.84404 c 5.84142,3.37946 -7.5251,4.83316 -6.04477,0.61005 2.00201,-2.15937 3.56949,-3.21484 6.04477,-0.61005 m -5.8039,3.87815 c 6.87753,2.17994 -4.90094,7.31207 -4.54629,1.18983 1.33871,-2.28041 2.33124,-2.63627 4.54629,-1.18983 m 57.0501,0.36917 c 0.6742,4.01492 -8.28886,7.67398 -1.31208,6.95984 -0.19366,0.0194 -0.90054,3.80431 -2.36392,3.84304 -0.44422,0.0133 -3.81036,-8.0952 -2.71736,-8.04678 2.02501,0.0932 1.70546,1.48759 3.29835,-0.63546 0.38976,-0.52048 2.26225,-4.04397 3.09501,-2.12064 m -48.96095,3.34073 c 3.08532,5.79542 -7.20677,3.73168 -4.17349,3.05264 -4.24853,0.46964 2.74884,-5.32821 4.17349,-3.05264 m 42.38481,3.52954 c -0.0835,2.75368 -4.96266,7.6643 -6.84243,3.79584 -3.4775,0.57131 7.26245,-6.12466 6.84243,-3.79584 m -8.0262,4.4543 c 1.56021,7.32538 -12.99856,8.40628 -17.61021,9.41212 -6.09682,1.32782 -7.38349,-3.38066 -0.85818,-5.05708 5.18659,-1.33386 14.10245,-4.83557 18.46839,-4.35504 m 2.08916,6.60519 c -3.11075,5.80148 -17.23135,11.337881 -23.54726,7.891853 -5.7688,-3.149479 11.13817,-4.904573 12.817,-5.232593 1.45128,-0.28323 10.40466,-4.51481 10.73026,-2.65926 m -3.85273,7.382272 c -3.20152,2.851718 -6.63182,6.986468 -11.35482,6.865427 -0.6742,-0.170667 -7.56989,0.193666 -7.18377,0.909016 0.49627,0.916278 10.13353,0.183982 10.02459,0.344966 -0.84728,1.264875 -8.74761,4.888834 -10.16258,3.427872 -0.39943,-0.409117 -1.24793,-9.373391 -1.13899,-9.407282 2.06617,-0.635464 6.25296,0.232398 8.74398,-0.260238 3.37098,-0.666934 7.58441,-2.486175 11.07159,-1.879761 m -5.54003,8.972746 c -3.36009,3.367352 -7.89911,6.146446 -12.34736,7.815597 -1.58805,-4.483347 3.39277,-4.707272 6.45147,-5.327001 1.45854,-0.29776 6.29169,-3.120428 5.89589,-2.488596" /><path
       inkscape:connector-curvature="0"
       id="path94"
       style="fill:#000000;fill-opacity:1;fill-rule:nonzero;stroke:none"
       d="m 776.37158,165.1147 c -2.727,3.08086 -5.40103,12.63914 -5.48367,15.92552 -0.21824,8.74463 -4.36066,16.48067 -7.41821,24.44979 -2.75031,7.16818 1.51712,9.9418 1.00859,16.46372 -0.41954,5.35866 -1.09758,11.92507 -2.6486,17.08879 -1.48322,4.937 -6.755,10.99276 -4.46237,16.4277 2.26509,5.36713 -1.72053,12.03102 0.4598,19.71197 3.54277,12.47174 3.03,33.66904 -5.93076,43.98165 -1.90911,2.19728 -2.71005,-13.55873 -2.54901,-10.03079 -0.38564,-8.37171 0.54243,-16.73706 1.87521,-24.98587 0.85603,-5.30568 3.03,-11.42502 2.99186,-16.80486 -0.0339,-5.95618 -3.42199,-11.49282 -0.68652,-17.39179 0.19706,-13.79181 0.51277,-27.21281 3.83942,-40.57872 2.30958,-9.26164 2.70369,-20.59343 9.07094,-27.77008 7.33769,-8.27212 -2.63589,-11.19618 -8.09413,-2.1655 -3.81188,6.30791 -6.19138,15.0144 -10.48212,20.86464 -7.86741,10.73002 -2.17185,21.3096 -6.06636,33.40842 -1.44084,4.4772 -5.39679,8.08354 -6.149,12.77051 -0.53607,3.35843 2.84142,7.73392 1.58281,10.70883 -1.45567,3.422 -5.46884,5.51969 -3.90087,10.06893 1.94514,5.64259 4.65519,8.92686 5.47096,15.2941 0.83908,6.62151 4.56407,32.2388 -2.96008,36.17992 -4.75901,2.49393 -10.82961,-21.48123 -9.93968,-24.92653 1.04673,-4.04707 3.77797,-6.05789 -1.0891,-8.32297 -2.81812,-1.30947 -0.27758,-5.29509 -1.55103,-8.47977 -1.61882,-4.04707 -3.68897,-8.14711 -4.01104,-12.57557 -0.52548,-7.19573 3.20799,-9.27435 -0.32631,-16.80698 -0.92383,-1.97056 -9.5604,-22.98988 -13.56297,-15.46785 -0.95138,1.79682 2.39646,8.83998 2.59563,10.21514 1.08911,7.66188 0.0318,15.58014 2.50028,23.04709 1.73325,4.82045 -4.51745,20.67817 4.11276,20.87523 -6.5643,4.92216 3.53429,16.01663 3.27791,22.07876 2.7609,8.46917 2.85625,22.28853 10.80842,26.931 4.21869,2.46002 -0.38776,11.57122 7.86317,8.86329 7.01562,3.56396 8.58995,13.00994 16.05266,16.06536 9.99053,4.08733 25.05579,-2.335 29.25541,-11.73861 1.84131,-4.13394 2.86897,-8.55393 4.30134,-12.82771 -2.69946,-2.84566 -2.73336,-5.60021 -0.072,-8.36747 6.47955,-6.74017 5.95195,-12.49717 9.82103,-20.95363 2.68038,-5.85448 18.92586,-28.76172 6.02186,-33.39148 12.41242,1.91759 1.93242,-16.82604 2.66767,-22.35209 -3.21434,-17.51045 -3.73135,-34.92978 -8.07718,-52.347 -4.90733,4.36914 -3.03636,15.13094 -2.50664,20.79472 3.31394,2.62953 -0.44072,13.22394 -0.30511,13.32989 -2.07863,-1.61035 -1.50017,-13.80452 -2.04261,-16.40863 -1.84131,-8.83151 -5.91804,-17.1121 -7.361,-25.98386 -0.76703,-4.72511 -1.54042,-28.80198 -7.90131,-24.86721 m 5.18703,38.82217 c 0.39835,5.06837 -0.13349,10.17276 0.58269,15.22205 0.83908,5.93923 3.87543,8.08566 3.08721,14.24949 -1.19717,9.35487 -6.21256,18.75635 -6.23375,27.84212 -0.008,3.81187 -1.05521,7.1364 -2.94101,10.44186 0.69075,5.67013 0.73101,11.40594 0.26062,17.09302 -0.14408,1.74596 -2.61258,26.46485 -8.36111,23.46451 -2.83083,-1.47474 2.78633,-20.43027 3.39445,-23.11065 1.36456,-5.98797 2.84354,-11.95474 4.0958,-17.97025 -0.72678,-3.54701 -3.72288,-8.12168 -2.52359,-11.89753 3.23765,-10.16216 1.46415,-22.57245 2.48333,-34.03349 0.66109,-7.41609 6.33122,-20.72691 4.34583,-27.79974 1.07215,2.03412 1.67604,4.19962 1.80953,6.49861 m 14.84701,43.5049 c 2.89439,5.13194 -1.57221,25.07486 -3.23554,28.60704 -4.90521,10.41431 -0.0699,28.26166 -12.47386,35.3472 1.98751,-12.07763 11.3106,-24.94772 10.2342,-37.019 -0.46403,-5.20821 0.0169,-26.29322 3.75255,-30.02457 0.72042,0.97045 1.20564,1.99811 1.72265,3.08933" /><path
       inkscape:connector-curvature="0"
       id="path98"
       style="fill:#000000;fill-opacity:1;fill-rule:nonzero;stroke:none"
       d="m 338.20055,-244.87213 c -1.72487,0.2602 -4.25342,4.31427 -4.51152,5.92164 -0.41968,2.61668 8.15851,1.34296 9.60639,0.0566 -0.50361,-2.42783 -1.61575,-6.50079 -5.09487,-5.97829 m -29.75506,5.25435 c -3.78129,2.36278 -1.15202,6.6099 -5.4558,9.54554 -6.81764,4.64582 9.30843,6.34551 11.05008,6.17344 8.46488,-0.84355 3.00908,-21.10553 -5.59428,-15.71898 m 53.55911,1.60316 c -0.26649,0.063 -2.858,7.02539 -3.12239,6.69804 7.30657,9.01046 11.6754,-8.74396 3.12239,-6.69804 m -27.88121,1.39543 c -0.14898,0.1217 -2.04172,8.14592 -2.18022,9.0734 -0.57076,3.69735 9.84771,4.37723 9.69033,0.89811 -0.0839,-1.8172 0.73863,-17.08293 -7.51011,-9.97151 m 23.16195,8.75025 c -0.19935,0.57496 -2.67964,7.3926 -1.72907,7.3926 -1.08486,0 4.01631,-0.96105 2.79715,0.71765 -0.29588,-0.13849 -0.59175,-0.15108 -0.88972,-0.042 -0.0315,2.58941 6.52177,1.53812 6.69174,-1.97248 0.14059,-3.07832 -4.58496,-12.7099 -6.8701,-6.0958 m -24.98334,4.51992 c -3.06784,4.03939 2.52645,14.75163 -3.40148,17.7691 -7.19116,3.62181 5.77475,8.93282 6.25528,5.52504 -0.004,0.042 -2.61878,-1.35135 -3.18954,-1.54021 1.29889,0.33155 3.50639,-0.28328 4.5409,0.9149 -0.24552,0.18465 -0.49522,0.37141 -0.74493,0.55397 6.07901,5.9699 3.55256,-11.59986 3.66797,-12.96381 0.24132,-2.83491 1.36815,-5.40753 1.46467,-8.27602 0.0839,-2.4614 -7.45345,-3.498 -8.59287,-1.98297 m -29.64595,2.63347 c -0.80368,1.62834 -0.87713,17.74602 -0.0504,17.74602 -0.71765,0 -1.60317,5.85449 -0.94637,6.60361 1.66192,1.89484 8.70828,-1.32198 11.59356,-0.32315 8.28861,2.83911 1.98297,-14.4033 3.86942,-20.26408 1.50034,-4.68359 -13.81575,-5.10117 -14.46625,-3.7624 m 78.23399,0.22033 c -0.76591,1.21916 -2.02913,3.26089 -3.51479,3.26089 4.64582,0 6.59942,6.43783 7.70736,1.24224 0.29797,-1.41011 -1.28001,-9.18462 -4.19257,-4.50313 m -26.93483,3.60502 c -1.09536,2.11097 -2.57472,12.7141 -4.99206,13.65418 -10.04495,3.94705 5.02353,6.84492 6.2259,7.3947 1.53602,0.70505 2.91885,-12.9764 4.45907,-15.03701 5.0529,-6.77358 -3.67217,-9.93375 -5.69291,-6.01187 m 22.08127,3.97224 c -2.50337,2.21169 -1.50663,8.42291 1.52133,5.79153 1.97878,-1.65772 4.76543,1.03031 5.35717,-2.70061 0.50781,-3.20004 -4.78851,-4.95428 -6.8785,-3.09092 m -4.30378,6.46721 c -2.60619,3.49801 -6.97082,13.12119 -8.40402,17.21304 -0.26649,0.7659 8.88036,4.34365 9.92745,4.02889 1.32618,-0.40289 1.61785,-11.14451 2.35858,-12.8463 0.37771,-0.88132 4.49264,-7.18066 2.11097,-7.18066 -1.6892,0 -4.54929,-3.15807 -5.99298,-1.21497 m 24.56786,5.89646 c -1.43529,2.68173 -5.21867,3.46023 0.53719,5.93003 5.99928,2.55793 2.13406,-11.02071 -0.53719,-5.93003 m -63.39003,1.77523 c -7.10722,1.87805 -5.72649,23.66346 -7.06316,30.15585 -2.37327,11.52852 -13.39607,21.81059 1.11844,27.59373 6.77987,2.70272 6.49659,-32.92572 7.14919,-37.4834 0.50781,-3.56306 11.82019,-23.64877 -1.20447,-20.26618 m 56.88925,3.61341 c -4.50733,3.04266 6.55954,7.95497 6.55954,4.50104 0,-2.87269 -3.29656,-6.69804 -6.55954,-4.50104 m -42.62445,0.48053 c -4.70877,2.10678 -2.49497,8.60757 -3.14757,12.36787 -1.44159,8.31589 -3.61132,16.78496 -6.34341,24.76721 -1.3031,3.80856 -5.00884,6.97502 -3.21892,11.32077 2.5873,6.28256 7.92349,1.76474 8.76704,1.98088 -0.53089,0.53928 -1.05549,0.6442 -1.57379,0.31475 1.36605,-0.30846 2.69013,-0.73653 3.97014,-1.2884 1.78992,-2.58521 0.0441,-6.55325 1.60527,-9.07341 2.74048,-4.42549 0.88971,-16.23099 1.83188,-21.60704 0.58545,-3.35112 12.21469,-25.09036 -1.89064,-18.78263 m -43.41343,0.81628 c -7.81228,3.19163 -2.2096,26.72919 -2.8559,33.19221 -0.14059,1.38913 -0.6484,5.8398 -1.11214,6.86381 -1.33877,3.02167 11.81389,6.63928 12.52524,5.64465 -0.39659,0.55397 -5.68452,-3.15177 -6.484,-2.48868 0.47213,-0.40709 9.32731,0.0147 9.32731,-0.5288 -0.83935,0.29588 -1.70389,0.48473 -2.58941,0.57496 0.54978,0.80788 1.27792,1.40172 2.18862,1.77943 -0.11961,0 2.15084,-4.17788 2.23477,-3.09302 -0.42387,0.71975 -0.73863,1.48776 -0.94427,2.30193 0.24971,0.26859 2.18442,-7.03378 0.75122,-8.87406 -3.97223,-5.07179 -4.93959,-16.28765 -0.61482,-21.54619 6.92256,-8.42921 -1.48776,-18.2895 -12.42662,-13.82624 m 82.85253,3.95754 c -1.85287,1.68501 -4.11073,6.73371 -5.34248,9.01885 -2.99229,5.53973 -8.83419,3.41827 0.44276,8.11235 6.06852,3.07623 5.35507,-6.95404 8.92862,-9.95473 5.08228,-4.24712 -1.08907,-9.86869 -4.0289,-7.17647 m -21.73714,4.78432 c -6.01607,1.54021 -10.65139,28.72056 -12.59869,34.21832 -2.93774,8.29071 -6.00347,10.65559 1.48985,15.81551 10.13729,6.97712 7.75982,-12.77286 8.77334,-20.40887 0.31895,-2.38166 1.51923,-18.09225 4.98366,-18.556 4.81159,-0.58544 6.12308,-13.33312 -2.64816,-11.06896 m 12.09507,12.99318 c -8.38723,4.19257 -22.94581,49.5596 -3.65328,49.5596 5.10746,0 6.80505,2.44671 6.80505,-6.06013 0,-7.43457 -4.37093,-13.57863 -3.58403,-21.55878 0.13639,-1.40802 12.77075,-28.07426 0.43226,-21.94069 m -77.28972,26.45011 c -5.34248,1.52343 -7.72415,20.18644 -3.63859,20.18644 4.54719,-0.0525 1.76264,-5.21028 1.81719,-8.09975 0.0923,-7.32126 -2.11936,-8.45229 7.85845,-11.39212 -13.42545,3.95125 -1.83609,10.91368 -4.95428,12.54832 -0.46375,0.25601 -1.12684,-2.13195 -1.29051,-2.13195 -2.86009,0 9.64836,19.09318 9.64836,4.33106 0,-4.05617 4.59756,-7.35483 2.11727,-11.77193 -2.61039,-4.63532 -5.53133,-5.37815 -11.55789,-3.67007 m 19.25896,5.27534 c -11.45088,5.64255 -5.56072,13.75279 4.70037,13.24708 8.38934,-0.43436 4.21775,-17.73133 -4.70037,-13.24708 m 15.63504,0.0504 c -2.04382,2.91465 -6.60151,25.39882 4.86196,18.25592 5.53973,-3.45813 5.28582,-5.86078 8.00742,-10.89899 3.7645,-6.92886 -10.71224,-10.37231 -12.86938,-7.35693 m 17.69776,9.26436 c -2.31242,5.1788 -12.84839,8.78173 -12.47488,15.88475 0.22243,4.16529 -3.62391,1.09955 -0.62532,7.7829 2.48868,5.54813 8.37255,0.2581 12.60079,-0.24551 1.95359,-0.23292 10.01138,0.77011 11.283,-0.48682 3.13079,-3.09931 2.47819,-7.23523 6.356,-10.29257 3.79597,-2.99649 -15.49236,-16.27715 -17.13959,-12.64275 m -44.13108,6.484 c -10.66818,0.84355 -4.70038,26.221386 12.49587,12.65954 -0.086,0.065 -9.04613,0.15528 -8.63065,0.49941 -2.09419,-1.8109 18.36714,-1.04079 18.37973,-1.05338 -1.25693,1.07647 -4.20516,0 -5.59429,-0.11751 3.55466,2.29982 12.53574,-0.76801 10.24221,-6.2259 -3.1098,-7.39261 -21.22514,-6.20912 -26.89287,-5.76216 m 10.22961,14.88802 c -7.30866,1.71438 -11.86215,6.14616 -10.7626,13.555553 0.24131,1.65982 6.47981,22.020426 6.42105,22.051901 0.82047,-0.430168 14.44317,6.905777 16.6045,5.69501 -1.20657,-0.02728 -2.38586,0.138494 -3.53787,0.491022 0.18046,-0.400791 2.53275,3.271378 2.27045,3.185345 -1.10165,-0.358824 -1.97878,-1.775232 -3.15387,-2.064809 0.62112,0.153182 -1.64933,9.711314 -3.82535,9.711314 1.01561,0 0.35253,-3.317542 -0.99673,-2.148743 -5.18091,4.446472 19.20229,11.509628 23.41375,11.110935 -1.27792,0.01259 -3.08882,-0.07344 -4.31847,-0.384004 7.53319,1.903233 8.66002,-17.445952 11.9272,-21.147499 5.68242,-6.389574 1.02192,-8.771239 0.63371,-14.940483 -0.17836,-2.811833 5.7118,-15.811312 2.2075,-17.227722 -4.7969,-1.941 -7.35902,0.86454 -11.027,1.16041 -11.11933,0.887613 -15.47557,-11.50124 -25.85627,-9.04823" /></g></svg>