<?xml version="1.0" encoding="UTF-8" standalone="no"?>
<!-- Created with Inkscape (http://www.inkscape.org/) -->

<svg
   xmlns:dc="http://purl.org/dc/elements/1.1/"
   xmlns:cc="http://creativecommons.org/ns#"
   xmlns:rdf="http://www.w3.org/1999/02/22-rdf-syntax-ns#"
   xmlns:svg="http://www.w3.org/2000/svg"
   xmlns="http://www.w3.org/2000/svg"
   xmlns:sodipodi="http://sodipodi.sourceforge.net/DTD/sodipodi-0.dtd"
   xmlns:inkscape="http://www.inkscape.org/namespaces/inkscape"
   id="svg2"
   version="1.1"
   inkscape:version="0.48.4 r9939"
   width="744.09447"
   height="1052.3622"
   xml:space="preserve"
   sodipodi:docname="deevad_spikes.pdf"><metadata
     id="metadata8"><rdf:RDF><cc:Work
         rdf:about=""><dc:format>image/svg+xml</dc:format><dc:type
           rdf:resource="http://purl.org/dc/dcmitype/StillImage" /><dc:title></dc:title></cc:Work></rdf:RDF></metadata><defs
     id="defs6" /><sodipodi:namedview
     pagecolor="#ffffff"
     bordercolor="#666666"
     borderopacity="1"
     objecttolerance="10"
     gridtolerance="10"
     guidetolerance="10"
     inkscape:pageopacity="0"
     inkscape:pageshadow="2"
     inkscape:window-width="1382"
     inkscape:window-height="822"
     id="namedview4"
     showgrid="false"
     inkscape:zoom="0.43954449"
     inkscape:cx="17.368764"
     inkscape:cy="455.92654"
     inkscape:window-x="171"
     inkscape:window-y="106"
     inkscape:window-maximized="0"
     inkscape:current-layer="g10" /><g
     id="g10"
     inkscape:groupmode="layer"
     inkscape:label="deevad_spikes"
     transform="matrix(1.25,0,0,-1.25,0,1052.3622)"><path
       inkscape:connector-curvature="0"
       id="path14"
       style="fill:#000000;fill-opacity:1;fill-rule:nonzero;stroke:none"
       d="m 189.56141,269.81945 c 0,0.578 -4.164,6.598 -9.253,13.379 -11.336,15.105 -15.141,21.62901 -18.215,31.23001 -1.309,4.082 -2.832,8.45 -3.387,9.70299 -0.555,1.254 -1.258,7.57101 -1.562,14.03601 l -0.551,11.754 4.496,8.792 c 6.383,12.493 22.168,35.575 33.254,48.633 2.078,2.446 4.742,6.043 5.922,7.989 1.179,1.949 3.492,5.132 5.136,7.07799 1.649,1.941 3.637,4.511 4.422,5.707 1.61,2.45301 0.387,-0.719 -5.98,-15.51999 -12.832,-29.824 -22.25,-68.531 -22.266,-91.508 -0.008,-11.175 2.43,-23.91401 6.102,-31.83601 2.84,-6.14 6.449,-16.918 6.449,-19.277 0,-0.664 -1.027,-1.211 -2.285,-1.211 -1.254,0 -2.282,0.473 -2.282,1.051 z" /><path
       inkscape:connector-curvature="0"
       id="path16"
       style="fill:#000000;fill-opacity:1;fill-rule:nonzero;stroke:none"
       d="m 511.17566,173.81142 c -0.902,-0.387 -15.98,-17.395 -22.977,-25.926 -5.203,-6.344 -19.203,-18.262 -36.949,-31.449 -13.066,-9.707 -28.242,-16.809004 -43.699,-20.425994 -17.375,-4.061998 -18.523,-3.991998 -18.523,0.828 0,4.195994 1.609,9.909994 6.046,21.499994 2.473,6.45 2.672,7.832 1.329,8.95 -1.305,1.082 -4.176,-2.629 -15.801,-20.375 -7.821,-11.941994 -15.332,-22.308992 -16.676,-23.027992 -1.582,-0.847 -2.305,-2.183 -2.074,-3.797 0.332,-2.34 0.851,-2.465 8.625,-2.101 10.172,0.472 10.695,-0.305 6.699,-10.19901 -2.262,-5.598 -2.617,-7.52 -1.574,-8.778 1.371,-1.652 2.344,-1.605 15.699,0.926 3.453,0.656 8.34,1.426 10.852,1.699 13.406,1.465 21.433,3.934 25.699,7.953 1.57,1.47701 6.691,4.52401 11.398,6.75001 6.953,3.282 11.84,7.051 25.977,20.097998 15.965,14.741994 18.324,17.440994 28.273,32.476994 13.266,20.039 16.41,26.71 17.528,37.148 0.472,4.43 0.543,7.922 0.148,7.75 z m -111.023,-92.347992 c 0.222,-0.035 0.234,-0.191 0,-0.453 -0.473,-0.519 -0.102,-1.777 0.824,-2.797 1.515,-1.675 1.176,-2.047 -3.426,-3.75 -2.805,-1.043 -5.102,-1.742 -5.102,-1.55 0,1.605 2.719,7.55 3.454,7.55 0.511,0 1.875,0.336 3.023,0.75 0.574,0.207 1,0.285 1.227,0.25 z" /><path
       inkscape:connector-curvature="0"
       id="path18"
       style="fill:#000000;fill-opacity:1;fill-rule:nonzero;stroke:none"
       d="m 56.676015,732.31247 c -0.398,1.039 -0.207,3.012 0.43,4.379 0.633,1.371 2.59,6.859 4.351,12.195 1.758,5.336 4.649,13.242 6.418,17.567 1.77,4.324 3.219,8.531 3.219,9.347 0,2.258 2.18,3.129 4.02,1.606 1.308,-1.086 1.5,-3.676 0.968,-12.942 -0.367,-6.371 -0.89,-11.957 -1.168,-12.414 -0.273,-0.461 0.016,-1.8 0.649,-2.984 1.445,-2.699 8.21901,-3.711 15.60901,-2.332 6.653,1.242 8.929995,-0.188 5.563,-3.492 -1.946,-1.91 -20.73901,-8.055 -24.63301,-8.055 -0.77,0 -2.211,-0.715 -3.199,-1.586 -0.993,-0.875 -3.985,-1.945 -6.653,-2.383 -3.937,-0.648 -4.984,-0.441 -5.574,1.094 z" /><path
       inkscape:connector-curvature="0"
       id="path20"
       style="fill:#000000;fill-opacity:1;fill-rule:nonzero;stroke:none"
       d="m 215.06485,791.92659 c -1.093,-0.004 -4.097,-7.586 -6.574,-16.551 -2.234,-8.09 -8.797,-20.355 -13.324,-24.898 -4.75,-4.766 -4.203,-6.813 2.5,-9.227 6.676,-2.398 8.043,-4.07 12.148,-14.898 1.676,-4.418 3.594,-8.399 4.278,-8.852 1.484,-0.98 7.929,-0.062 17.023,2.426 l 6.653,1.801 0.199,14.25 c 0.183,12.808 -0.02,14.469 -2.074,16.699 -1.258,1.363 -5.243,9.102 -8.852,17.176 -6.895,15.418 -10.52,22.082 -11.977,22.074 z m 7.5,-38.426 c 0.106,0.004 0.204,-0.039 0.25,-0.097 0.907,-1.067 3.375,-14.915 3.375,-18.926 0,-1.766 -0.91,-3.446 -2.222,-4.149 -3.063,-1.64 -3.41,-1.519 -4.551,1.399 -0.551,1.414 -2.109,5.086 -3.449,8.176 l -2.426,5.625 4.273,4.375 c 2.055,2.101 4.02,3.578 4.75,3.597 z" /><path
       inkscape:connector-curvature="0"
       id="path22"
       style="fill:#000000;fill-opacity:1;fill-rule:nonzero;stroke:none"
       d="m 246.89543,637.23753 c -3.665,0.187 -1.821,-3.621 5.722,-12.098 10.028,-11.269 12.274,-15.425 15.625,-28.652 2.199,-8.676 2.52,-12.617 2.324,-29.949 -0.257,-23.071 0.129,-24.356 8.25,-26.399 4.829,-1.215 5.137,-1.519 5.329,-5.425 0.109,-2.282 0.082,-5.954 -0.051,-8.153 -0.219,-3.543 0.23,-4.25 4,-6.273 5.074,-2.727 5.066,-2.719 17,2.949 10.355,4.922 12.551,5.238 20.023,2.902 2.781,-0.871 9.938,-2.23 15.903,-3 5.96,-0.773 12.683,-2.312 14.921,-3.453 5.016,-2.551 12.145,-10.289 14.352,-15.574 1.117,-2.672 2.277,-3.828 3.602,-3.574 1.703,0.328 1.89,1.699 1.546,10.726 -0.265,7.028 0.207,12.754 1.5,17.922 2.661,10.598 2.075,11.719 -7.75,14.676 -4.507,1.359 -8.535,2.992 -8.949,3.625 -0.414,0.637 -1.09,3.496 -1.5,6.375 -1.16,8.164 -3.082,12.676 -5.398,12.676 -1.129,0 -5.184,-2.321 -9.028,-5.149 -16.222,-11.945 -30.179,-15.722 -39.921,-10.828 -8.594,4.321 -12.149,7.668 -15.801,14.977 -4.504,9.011 -4.926,19.773 -1.051,26.101 1.348,2.196 2.559,5.969 2.699,8.375 0.141,2.407 2.16,8.137 4.5,12.75 2.344,4.614 3.942,8.953 3.528,9.625 -1.094,1.77 -3.547,1.485 -5.278,-0.601 -0.824,-0.996 -4.965,-3.543 -9.199,-5.676 l -7.699,-3.875 -5.653,4.477 c -3.109,2.457 -7.39,6.617 -9.5,9.25 -5.765,7.203 -9.07,10.175 -12.148,10.949 -0.746,0.187 -1.375,0.297 -1.898,0.324 z m 100.046,-92.398 c 0.454,0 2.172,-2.325 3.829,-5.153 l 3.023,-5.125 6.727,0 c 5.976,0 6.75,-0.25 6.75,-2.273 0,-1.254 -0.215,-2.301 -0.477,-2.301 -0.262,0 -1.164,-0.18 -2,-0.426 -1.988,-0.574 -14.898,2.535 -16.301,3.926 -0.594,0.594 -2.738,1.074 -4.773,1.074 -3.489,0 -3.637,0.156 -2.324,2.578 2.523,4.66 4.718,7.7 5.546,7.7 z" /><path
       inkscape:connector-curvature="0"
       id="path24"
       style="fill:#000000;fill-opacity:1;fill-rule:nonzero;stroke:none"
       d="m 179.48309,650.37797 c -2.098,-0.27 -1.786,-3.25 1.023,-8.25 4.875,-8.688 11.102,-26.887 12.398,-36.25 1.18,-8.508 0.872,-11.731 -0.574,-5.977 -1.594,6.355 -12.371,23.422 -21.199,33.551 -8.426,9.668 -11.316,11.734 -12.852,9.25 -0.351,-0.571 4.497,-8.703 10.778,-18.074 8.125,-12.129 11.426,-18.043 11.426,-20.477 0,-5.535 -1.282,-5.273 -5.477,1.074 -4.695,7.11 -12.707,15.676 -14.648,15.676 -0.762,0 -1.594,-0.629 -1.852,-1.398 -0.555,-1.665 5.402,-13.457 7.676,-15.2 0.871,-0.668 3.726,-4.011 6.324,-7.425 4.305,-5.657 4.656,-6.672 4.125,-11.352 -0.715,-6.309 -6.086,-18.824 -8.074,-18.824 -0.539,0 -1.875,2.746 -2.977,6.125 -1.101,3.379 -3,7.504 -4.222,9.148 -4.422,5.949 -9.993,3.391 -6.704,-3.074 3.329,-6.539 3.348,-17.563 0.051,-38.574 l -0.75,-4.699 4.426,-0.7 c 2.426,-0.39 7.918,-2.519 12.227,-4.726 7.781,-3.989 9.875,-4.227 9.875,-1.149 0,2.067 3.574,3.973 7.472,3.973 3.621,0 8.688,-5.109 14.653,-14.773 4.089,-6.629 6.378,-15.973 6.398,-26.051 0.008,-3.52 0.473,-4.852 1.699,-4.852 0.93,0 1.942,1.164 2.25,2.578 0.313,1.41 1.332,6.414 2.278,11.125 3.26099,16.305 4.74199,19.399 9.19899,19.399 3.5,0 5.609,2.683 4.199,5.351 -0.602,1.137 -2.164,7.219 -3.449,13.5 -1.285,6.278 -3.121,13.653 -4.102,16.399 -0.98,2.746 -1.801,6.222 -1.801,7.726 0,2.895 -1.371,3.739 -9.89799,6.024 -3.98,1.066 -4.977,1.926 -6.074,5.25 -1.227,3.711 -1.059,4.355 2.597,9.398 4.469,6.164 6.133,13.492 3.852,16.903 -0.816,1.218 -2.652,5.566 -4.102,9.648 -1.449,4.082 -4.175,10.484 -6.046,14.25 -4.641,9.328 -15.536,24.348 -18.301,25.227 -0.742,0.234 -1.344,0.312 -1.824,0.25 z m 14.199,-57.375 c 0.304,0.023 0.148,-1.137 -0.477,-3.477 -0.484,-1.809 -1.508,-3.492 -2.273,-3.75 -0.938,-0.313 -0.762,0.879 0.551,3.625 1.132,2.379 1.894,3.578 2.199,3.602 z m -25.278,-35.575 c 0.598,0.078 1.985,-1.371 5.25,-5 3.106,-3.453 5.668,-6.621 5.676,-7.027 0.008,-0.402 -0.758,-1.023 -1.676,-1.375 -2.371,-0.91 -9.761,8.043 -9.699,11.75 0.02,1.02 0.094,1.602 0.449,1.652 z m 27.375,-0.55 c 0.18,0.011 0.36,0.003 0.528,0 1.332,-0.04 2.406,-0.579 4.398,-1.653 4.278,-2.297 10.602,-10.867 10.602,-14.375 0,-2.863 -1.231,-3.16 -5.551,-1.347 -2.102,0.878 -6.566,1.742 -9.926,1.925 -5.75,0.309 -6.402,0.664 -11.398,6.223 -4.781,5.316 -5.043,5.926 -2.727,5.926 1.418,0 5.34,0.859 8.727,1.926 2.59,0.816 4.113,1.293 5.347,1.375 z" /><path
       inkscape:connector-curvature="0"
       id="path26"
       style="fill:#000000;fill-opacity:1;fill-rule:nonzero;stroke:none"
       d="m 478.70565,528.57238 c -0.804,5.519 -1.695,23.57 -1.984,40.105 -0.52,29.949 -0.512,30.059 1.797,28.824 3.777,-2.023 6.719,-1.441 9.301,1.848 3.136,3.984 2.433,6.758 -4.059,16.043 -4.66,6.664 -5.055,7.785 -5.055,14.316 0,8.516 -1.48,14.227 -4.211,16.223 -1.832,1.34 -1.882,2.07 -0.531,8.149 2.235,10.07 3.758,24.472 2.973,28.058 -0.383,1.75 -1.528,4.008 -2.539,5.024 -1.051,1.05 -2.219,4.992 -2.727,9.191 -1.137,9.449 -3.937,12.32 -9.68,9.922 -2.039,-0.856 -3.968,-1.133 -4.285,-0.621 -0.316,0.512 1.239,3.461 3.45,6.551 7.742,10.82 9.14,18.531 5.019,27.613 -1.215,2.68 -2.543,6.64 -2.949,8.808 -0.406,2.165 -1.457,4.532 -2.332,5.262 -2.93,2.43 -1.32,6.75 2.523,6.75 0.274,0 3.348,-4.367 6.824,-9.703 6.282,-9.637 6.36,-9.703 11.106,-9.687 3.348,0.011 7.16,1.312 12.719,4.339 7.215,3.926 8.625,5.329 15.476,15.391 4.145,6.09 9.727,15.184 12.403,20.207 4.609,8.645 7.453,11.09 8.804,7.563 0.625,-1.629 -5.031,-11.329 -13.215,-22.665 -6.222,-8.617 -9.644,-17.378 -11.855,-30.332 -2.18,-12.796 -1.168,-19.375 4.105,-26.652 l 3.512,-4.851 -2.168,-3.957 c -3.008,-5.485 -5.285,-6.696 -9.562,-5.083 -3.289,1.243 -3.453,1.165 -3.453,-1.652 0,-1.902 -1.25,-4.004 -3.512,-5.894 -3.008,-2.516 -3.594,-3.911 -4.121,-9.786 -0.336,-3.765 -0.043,-8.953 0.652,-11.523 1.68,-6.211 7.102,-13.516 11.457,-15.445 4.164,-1.844 4.254,-2.258 1.113,-5.098 -5.562,-5.035 -5.621,-5.836 -2.625,-36.477 3.258,-33.332 3.614,-45.785 1.45,-50.679 -1.711,-3.863 -4.149,-4.574 -5.106,-1.492 -1.355,4.379 -3.887,9.418 -4.734,9.418 -0.492,0 -2.289,-3.727 -3.988,-8.278 -2.512,-6.719 -3.258,-11.172 -3.973,-23.672 -0.735,-12.804 -1.192,-15.457 -2.719,-15.75 -1.496,-0.285 -2.113,1.532 -3.301,9.692 z" /><path
       inkscape:connector-curvature="0"
       id="path28"
       style="fill:#000000;fill-opacity:1;fill-rule:nonzero;stroke:none"
       d="m 384.67308,235.05737 c -2.60901,3.453 -5.18801,6.277 -5.73401,6.277 -0.543,0 -1.934,2.285 -3.09,5.074 -1.153,2.793 -2.875,5.282 -3.825,5.528 -1.222,0.32 -2.8,5.562 -5.433,18.043 -4.594,21.758 -5.738,29.82801 -6.699,47.34001 -0.848,15.375 -0.375,17.613 7.687,36.281 4.824,11.172 10.508,20.301 15.45701,24.836 1.785,1.633 9.156,7.367 16.375,12.742 20.535,15.281 30.821,26.996 30.821,35.102 0,5.109 2.374,7.761 4.574,5.109 1.508,-1.816 1.527,-1.699 -4.106,-22.82 -1.004,-3.77 -2.293,-7.34 -2.859,-7.934 -0.57,-0.598 -1.035,-2.5 -1.035,-4.23 0,-4.762 -2.235,-9.047 -7.352,-14.094 -2.547,-2.516 -9.254,-10.406 -14.906,-17.539 -21.668,-27.348 -20.723,-25.809 -23.82801,-38.965 -3.832,-16.246 -4.172,-18.797 -5.238,-39.58201 -0.747,-14.559 -0.606,-19.172 0.738,-23.774 3.242,-11.117 7.25801,-20.668 11.20301,-26.66 4.316,-6.554 4.512,-7.011 2.992,-7.011 -0.551,0 -3.137,2.824 -5.742,6.277 z" /><path
       inkscape:connector-curvature="0"
       id="path30"
       style="fill:#000000;fill-opacity:1;fill-rule:nonzero;stroke:none"
       d="m 271.59647,814.62906 -0.199,-8.551 c -0.11,-4.707 -0.082,-10.176 0.051,-12.148 0.234,-3.504 -13.125,-40.426 -16.551,-45.75 -1.778,-2.758 -0.781,-7.043 2.347,-10.176 2.27,-2.266 9.266,-14.27 10.301,-17.676 0.457,-1.496 2.551,-6.066 4.676,-10.148 2.125,-4.082 4.617,-9.348 5.523,-11.7 2.946,-7.621 8.422,-3.722 7.028,5 -0.469,2.926 -0.004,6.614 1.426,10.973 1.183,3.613 2.492,8.367 2.898,10.551 0.406,2.183 1.695,6.023 2.875,8.551 6.402,13.695 6.203,12.957 4.324,15.824 -1.554,2.375 -1.543,3.039 0,6.226 0.949,1.957 2.946,4.364 4.449,5.348 1.508,0.988 2.75,2.289 2.75,2.902 0,0.614 -2.031,3.133 -4.5,5.598 -2.464,2.465 -6.402,8.516 -8.75,13.426 -2.347,4.91 -5.992,10.465 -8.097,12.351 -2.266,2.024 -5.211,6.676 -7.199,11.399 l -3.352,8 z m 2.199,-55.426 c 1.254,0.031 6.856,-8.984 6.801,-10.949 -0.031,-1.156 -1.188,-5.645 -2.574,-9.977 -2.793,-8.719 -2.766,-8.722 -7.977,1.176 l -3.074,5.852 3.125,6.949 c 1.727,3.82 3.387,6.941 3.699,6.949 z" /><path
       inkscape:connector-curvature="0"
       id="path32"
       style="fill:#000000;fill-opacity:1;fill-rule:nonzero;stroke:none"
       d="m 151.89738,790.78025 c -0.883,0.016 -1.719,-0.425 -2.023,-1.402 -0.247,-0.785 -0.762,-3.344 -1.153,-5.699 -0.711,-4.281 -0.707,-4.301 -6.398,-4.301 -5.297,0 -5.86,0.285 -8.051,4 -2.891,4.898 -5.277,5.035 -9.574,0.551 -3.16,-3.301 -3.258,-3.656 -1.977,-8.449 1.133,-4.231 1.059,-5.727 -0.597,-9.676 -1.153,-2.735 -2.739,-4.668 -3.829,-4.676 -2.957,-0.02 -4.187,-2.477 -4,-8 0.211,-6.098 1.196,-7.973 4.227,-7.973 1.355,0 2.684,-1.172 3.352,-2.925 0.886,-2.336 0.628,-3.567 -1.375,-6.278 l -2.5,-3.398 4.5,-4.60199 c 2.863,-2.933 5.226,-4.429 6.5,-4.097 1.097,0.285 2,0.066 2,-0.5 0,-1.77 3.261,-1.137 4.375,0.847 1.496,2.676 4.75,1.082 4.75,-2.324 0,-1.535 0.636,-3.059 1.421,-3.375 1.918,-0.773 12.356,0.441 14.852,1.727 1.109,0.57 2,2.312 2,3.925 0,3.793 5.965,9.98499 7.824,8.12499 1.981,-1.98 3.824,0.5 4.301,5.797 0.27,3.016 -0.168,4.985 -1.301,5.926 -2.719,2.258 -1.988,4.48 2.324,7.027 3.641,2.145 3.961,2.711 3.329,6.098 -0.387,2.062 -0.192,4.727 0.449,5.926 1.945,3.636 -0.098,5.347 -5.403,4.5 -2.675,-0.43 -4.671,-0.285 -4.671,0.324 0,0.586 -1.274,2.578 -2.829,4.426 -2.804,3.336 -2.812,3.371 -0.574,5.398 3.363,3.043 2.758,4.918 -2.199,6.903 -2.461,0.984 -4.707,2.781 -5.023,4 -0.364,1.378 -1.594,2.152 -2.727,2.175 z m -7.875,-29.953 c 1.242,0.125 2.164,-0.375 3.875,-1.648 2,-1.489 3.438,-4 4.125,-7.199 0.98,-4.555 0.844,-5.09 -2.051,-7.575 -3.543,-3.05 -6.523,-3.293 -11.847,-0.976 -2.813,1.222 -3.704,2.32 -3.704,4.551 0,5.23 2.907,10.371 6.778,11.972 1.219,0.508 2.078,0.801 2.824,0.875 z" /><path
       inkscape:connector-curvature="0"
       id="path34"
       style="fill:#000000;fill-opacity:1;fill-rule:nonzero;stroke:none"
       d="m 136.41052,684.18719 c -0.711,0 -3.415,-2.172 -6,-4.852 -12.75,-13.199 -39.403002,-41.086 -43.000002,-44.973 -6.386994,-6.894 -23.937994,-30.742 -30.925997,-42.05 -3.492,-5.653 -9.895,-17.227 -14.227,-25.7 l -7.875,-15.402 0.301,-14.273 c 0.168,-7.848 0.867,-15.985 1.551,-18.075 0.972,-2.972 0.867,-4.832 -0.477,-8.55 -0.945,-2.618 -2.015,-6.293 -2.375,-8.176 -0.359,-1.883 -0.972,-4.586 -1.375,-6 -0.617,-2.176 -0.301,-2.574 2.125,-2.574 3.289,0 3.367,-0.231 5.903,-16.028 2.128,-13.273 3.804,-21.445 4.671,-22.847 1.512,-2.446 2.801,-0.762 2.801,3.648 0,4.035 1.106,6.187 7.574,14.875 4.164,5.59 7.743003,9.984 7.954003,9.777 0.207,-0.211 2.773,-4.98 5.699,-10.601 5.57,-10.707 7.097,-13.074 8.398,-13.074 0.434,0 0.828,6.062 0.903,13.472 0.07,7.41 0.73,18.805 1.449,25.328 1.066,9.692 1.808,12.461 4.051,15.125 1.507,1.793 3.285,5.41 3.971994,8.047 3.821,14.692 3.914,12.863 -0.948994,20.578 -2.449,3.887 -5.496,9.446 -6.773,12.348 -1.282,2.902 -2.821,5.574 -3.426,5.949 -0.649,0.403 -0.887,5.078 -0.574,11.278 0.449,9.031 1.273,12.621 5.671,24.3 9.374994,24.868 16.081994,36.551 32.453996,56.625 4.921,6.032 8.949,11.344 8.949,11.797 0,0.457 3.344,4.481 7.426,8.953 7.101,7.782 8.918,11.075 6.125,11.075 z m -77.078999,-144.977 c 1.133003,-0.02 2.563003,-2.574 4.125003,-7.824 2.618,-8.785 2.832,-11.125 1.176,-12.149 -0.629,-0.39 -1.14,-1.824 -1.148,-3.203 -0.031,-4.363 -1.438,-5.375 -4.278003,-3.074 -2.242,1.816 -2.546,3.145 -2.546,10.602 0,10.3 1.023,15.679 2.671,15.648 z" /><path
       inkscape:connector-curvature="0"
       id="path36"
       style="fill:#000000;fill-opacity:1;fill-rule:nonzero;stroke:none"
       d="m 87.02887,56.41832 c -1.379,0.691005 -2.789,2.004015 -3.141,2.918015 -0.347,0.91 2.532,8.68 6.399,17.262 9.625,21.363003 11.371,23.105003 15.328,15.320003 1.199,-2.352 2.293,-4.477 2.43,-4.719 0.136,-0.242 5.015,3.141 10.843,7.52 13.137,9.871002 28.965,20.488002 37.993,25.488002 3.765,2.086 9.976,6.215 13.8,9.176 7.254,5.613 18.153,9.437 32.43,11.375 3.453,0.468 15.367,2.722 26.47699,5.008 12.84,2.64 22.19501,3.988 25.68301,3.695 3.016,-0.254 9.832,-0.031 15.141,0.492 8.726,0.856 11.582,0.707 10.226,-0.539 -0.261,-0.238 -6.257,-1.273 -13.324,-2.297 -9.976,-1.441 -15.008,-2.855 -22.519,-6.324 -13.47301,-6.227 -40.219,-22.477 -45.575,-27.692 -2.457,-2.39 -5,-4.343 -5.656,-4.343 -0.652,0 -2.886,1.644 -4.961,3.652 l -3.769,3.656 -7.414,-1.269 c -8.77,-1.5 -22.582,-9.559 -43.032,-25.102002 -21.332,-16.211003 -27.914,-22.551003 -28.73,-27.660003 -0.387,-2.418 -1.398,-4.66401 -2.246,-4.98801 -3.66,-1.406005 -14.051,-1.805005 -16.383,-0.629005 z" /></g></svg>