<?xml version="1.0" encoding="UTF-8" standalone="no"?>
<!-- Created with Inkscape (http://www.inkscape.org/) -->

<svg
   xmlns:dc="http://purl.org/dc/elements/1.1/"
   xmlns:cc="http://creativecommons.org/ns#"
   xmlns:rdf="http://www.w3.org/1999/02/22-rdf-syntax-ns#"
   xmlns:svg="http://www.w3.org/2000/svg"
   xmlns="http://www.w3.org/2000/svg"
   xmlns:sodipodi="http://sodipodi.sourceforge.net/DTD/sodipodi-0.dtd"
   xmlns:inkscape="http://www.inkscape.org/namespaces/inkscape"
   id="svg2"
   version="1.1"
   inkscape:version="0.48.4 r9939"
   width="1054"
   height="1278.3317"
   xml:space="preserve"
   sodipodi:docname="deevad_basic.svg"><metadata
     id="metadata8"><rdf:RDF><cc:Work
         rdf:about=""><dc:format>image/svg+xml</dc:format><dc:type
           rdf:resource="http://purl.org/dc/dcmitype/StillImage" /><dc:title /></cc:Work></rdf:RDF></metadata><defs
     id="defs6" /><sodipodi:namedview
     pagecolor="#ffffff"
     bordercolor="#666666"
     borderopacity="1"
     objecttolerance="10"
     gridtolerance="10"
     guidetolerance="10"
     inkscape:pageopacity="1"
     inkscape:pageshadow="2"
     inkscape:window-width="1680"
     inkscape:window-height="1028"
     id="namedview4"
     showgrid="false"
     fit-margin-top="20"
     fit-margin-left="20"
     fit-margin-right="20"
     fit-margin-bottom="20"
     inkscape:zoom="0.43927825"
     inkscape:cx="76.242477"
     inkscape:cy="539.29499"
     inkscape:window-x="0"
     inkscape:window-y="0"
     inkscape:window-maximized="1"
     inkscape:current-layer="g10" /><g
     id="g10"
     inkscape:groupmode="layer"
     inkscape:label="deevad_basic"
     transform="matrix(1.25,0,0,-1.25,-35.953561,1007.2038)"
     style="display:inline"><path
       inkscape:connector-curvature="0"
       id="path72"
       style="fill:#000000;fill-opacity:1;fill-rule:nonzero;stroke:none"
       d="m 319.61801,784.03916 c -8.01524,-25.90011 -12.54316,-53.21303 -14.26814,-80.21778 18.33313,-19.17761 23.39868,-42.11203 17.36457,-67.90275 10.39127,-15.33275 7.62302,-60.71731 37.70819,-35.45356 24.92089,4.90947 7.74976,37.95899 15.49284,53.90142 22.27938,14.70039 7.51496,45.96357 14.66037,68.32967 -18.19305,10.78748 -3.01772,31.54466 -7.42691,47.61117 -7.38955,28.8658 -26.82731,-4.1904 -32.53856,-14.74842 -21.77377,4.89879 -4.13303,56.00663 -36.16198,23.39335" /><path
       inkscape:connector-curvature="0"
       id="path74"
       style="fill:#000000;fill-opacity:1;fill-rule:nonzero;stroke:none"
       d="m 487.5996,718.32466 c -53.1679,1.80843 -38.86827,69.21809 16.80829,51.834 43.98974,-12.02535 143.36379,21.45234 146.75496,-39.17498 -8.46635,-36.4059 13.83378,-105.58927 -29.12877,-115.23038 -55.55213,-8.99586 -105.60085,-17.85862 -87.38053,51.834 -2.62151,29.7393 -44.60027,18.70642 -43.69461,51.834 -10.96633,1.55959 -18.72957,9.64111 -23.52119,18.75271" /><path
       inkscape:connector-curvature="0"
       id="path76"
       style="fill:#000000;fill-opacity:1;fill-rule:nonzero;stroke:none"
       d="m 782.5481,765.72958 c -44.15299,-11.17476 -67.59627,-54.79339 -99.99005,-83.16111 -24.17301,-15.85707 -33.70295,-45.96145 -8.62988,-67.05523 34.32415,-8.47458 52.7645,36.50833 84.70073,41.37433 16.68533,11.7542 56.69036,39.54248 60.93016,-1.98881 -7.46933,-17.02598 -27.51943,-26.87486 6.30709,-21.55967 30.95769,13.28714 42.31446,59.31372 13.43075,79.52246 -40.10857,4.63723 -11.17977,48.41282 -48.3477,55.41124 -5.2701,-6.73792 -10.7623,-1.42774 -16.16265,0" /><path
       inkscape:connector-curvature="0"
       id="path78"
       style="fill:#000000;fill-opacity:1;fill-rule:nonzero;stroke:none"
       d="m 63.496204,727.92043 c -7.167872,21.26204 16.91199,59.36512 34.82238,29.94694 -5.306219,-34.17705 29.867546,-36.74992 30.006066,-67.13271 43.4735,-23.10849 26.23715,41.65407 27.39097,60.36859 23.50042,-1.01023 50.29843,57.83965 66.06336,24.46841 -1.92754,-26.52772 -32.69212,-54.9627 3.2655,-72.7599 -25.41107,-28.85732 8.09194,-36.03026 16.51837,-54.89682 -21.44787,-21.85669 -32.69212,-44.80131 -65.08016,-30.98926 -29.97228,-8.56496 -94.01519,-43.65933 -99.90761,6.0377 -10.730692,23.09666 17.579279,60.46657 -25.512423,57.95283 -13.012991,11.47569 -4.282479,39.55422 11.773015,47.00422 5.826536,2.15897 4.829825,8.13755 5.885663,12.88122" /><path
       inkscape:connector-curvature="0"
       id="path80"
       style="fill:#000000;fill-opacity:1;fill-rule:nonzero;stroke:none"
       d="m 270.0825,495.79933 c -32.42176,-10.93445 -22.39771,51.62535 2.24694,48.73532 36.10791,0.56754 69.44589,30.38015 107.24675,15.50387 49.78131,-13.91552 81.37791,-71.31317 59.99519,-118.86884 -5.59991,-23.06986 -28.68527,-52.67714 -36.56117,-12.18189 -24.60591,16.35035 -70.80761,-7.58923 -69.18052,40.97175 -13.36928,21.29168 -44.40802,22.32798 -52.96576,39.04249 -0.30992,-9.08654 -13.99687,-30.62034 -18.27961,-10.24487" /><path
       inkscape:connector-curvature="0"
       id="path82"
       style="fill:#000000;fill-opacity:1;fill-rule:nonzero;stroke:none"
       d="m 463.02957,486.61904 c -8.66257,22.55578 6.07165,51.96262 23.54118,67.08547 50.63743,35.00065 129.06557,13.0756 158.99695,-38.75748 19.95001,-49.5501 -15.54758,-114.34622 -73.17623,-112.51347 -22.68108,0.28245 -57.46512,11.08358 -19.73552,24.28235 42.20849,47.3096 -39.02293,82.91551 -57.55643,28.33649 -32.4862,-16.92161 -54.78502,31.09305 -30.41984,50.99422" /><path
       inkscape:connector-curvature="0"
       id="path84"
       style="fill:#000000;fill-opacity:1;fill-rule:nonzero;stroke:none"
       d="m 278.71014,285.02627 c -8.20141,-19.22492 3.4891,-45.1198 0,-67.46781 3.68655,-57.43396 100.63465,-26.83639 138.43676,-19.35735 27.66471,14.15622 7.11302,53.9232 12.59588,79.96015 14.95566,39.87052 -55.10068,70.12135 -45.67603,13.28937 -10.60935,-52.90705 -36.46571,-17.84277 -25.17974,18.14376 -0.96798,22.23724 2.1551,45.10295 -2.0973,66.87786 -41.94134,18.44475 -38.74361,-36.95692 -37.98993,-62.07163 4.68343,-40.57604 -82.76298,22.62251 -45.67604,-36.71131 l 7.45977,1.83484" /><path
       inkscape:connector-curvature="0"
       id="path86"
       style="fill:#000000;fill-opacity:1;fill-rule:nonzero;stroke:none"
       d="m 496.63404,195.07669 c -34.6928,14.99116 -42.84962,59.46988 -42.24011,93.21457 6.49008,44.78724 47.22901,84.22627 94.68377,81.02261 51.83603,2.13138 109.79344,-38.00557 101.2397,-93.93506 6.9284,-31.78073 -46.51605,-97.07852 -67.73769,-69.89729 2.75593,50.10911 -75.55589,40.1219 -54.62771,-8.26028 -5.7094,-5.18642 -35.06716,-5.03217 -35.68419,7.89345" /><path
       inkscape:connector-curvature="0"
       id="path88"
       style="fill:#000000;fill-opacity:1;fill-rule:nonzero;stroke:none"
       d="m 249.56285,110.84931 c 2.68171,-22.252287 -6.4071,-58.609587 18.18989,-67.735167 26.07367,-3.06365 75.40245,-21.90099 68.00681,23.35928 24.2702,35.558707 44.42286,-7.32416 56.23832,-23.55127 40.45851,-9.09494 74.02382,30.41383 40.92827,64.520377 -57.45766,16.88886 -119.6803,8.71097 -178.01008,0.23897 l -2.85532,-0.80676 -2.49789,-0.70056" /><path
       inkscape:connector-curvature="0"
       id="path90"
       style="fill:#000000;fill-opacity:1;fill-rule:nonzero;stroke:none"
       d="m 48.951896,37.765366 c -1.51249,21.01017 -12.96537,56.56173 9.98604,65.819314 43.761114,10.78397 88.738964,7.04044 133.167004,11.34966 35.74409,9.06505 58.64786,-16.855774 45.89289,-51.266024 -1.2088,-41.56581 -39.5432,29.17805 -46.39706,-17.42941 -32.15341,1.39538 -65.55532,-6.38146 -96.670634,-3.21753 -5.67681,33.60438 -29.74374,20.26783 -31.37929,-4.50572 -4.33304,-0.20841 -8.52912,-4.05515 -9.99398,2.27271" /><path
       inkscape:connector-curvature="0"
       id="path92"
       style="fill:#000000;fill-opacity:1;fill-rule:nonzero;stroke:none"
       d="m 166.1594,583.92282 c -35.01216,-0.86177 -64.93588,-28.57514 -71.560385,-62.14168 -11.72938,-40.33906 -27.11637,-89.12485 0.88151,-126.54636 51.772405,-32.59622 38.705965,56.64375 54.836325,81.96091 14.85414,-3.5721 47.32208,-2.46692 33.67015,24.60505 -45.27125,-12.54017 -42.87505,52.08817 -3.18726,43.88484 39.84403,-14.29497 31.08811,56.87399 -8.90886,35.10261 -3.34186,2.44718 -7.13762,1.78441 -10.82649,1.88144" /><path
       inkscape:connector-curvature="0"
       id="path94"
       style="fill:#000000;fill-opacity:1;fill-rule:nonzero;stroke:none"
       d="m 746.98861,571.40265 c -29.05472,4.3375 -78.43071,21.94813 -83.91774,-21.34902 -26.83848,-76.31675 94.22937,-8.11486 69.77031,-79.83595 1.69262,-34.36154 8.68475,-106.42602 56.57512,-61.26577 14.89025,38.11941 -16.78988,116.08251 49.98485,102.81183 55.29165,44.32246 -43.7136,84.34638 -66.1269,45.01656 -14.46161,-15.47718 -22.09182,18.2755 -37.59823,14.62235" /><path
       inkscape:connector-curvature="0"
       id="path96"
       style="fill:#000000;fill-opacity:1;fill-rule:nonzero;stroke:none"
       d="M 524.72925,-12.11228 C 448.7231,-16.54182 427.49957,110.89681 494.93184,142.32958 613.45724,248.58801 731.27868,48.85076 578.72488,-4.7513703 520.28888,-59.62064 478.16673,62.4715 493.07266,40.2877 c -6.7833,-25.08629 1.63535,-76.14694 35.37856,-45.0390703" /><path
       inkscape:connector-curvature="0"
       id="path98"
       style="fill:#000000;fill-opacity:1;fill-rule:nonzero;stroke:none"
       d="m 116.24541,380.16111 c -9.24623,-0.12283 -18.192382,-5.6067 -20.577212,-19.9946 -3.99049,-1.08975 -5.78569,-4.28531 -8.11085,-6.95793 l 2.11282,4.50993 C 69.2702,331.65744 72.929033,294.51809 95.050498,270.6839 86.550072,261.91498 78.030342,253.21626 68.756033,245.72487 44.783215,231.20535 35.35799,203.64214 60.227529,184.33367 c 32.622409,-7.43875 50.788471,30.09896 80.118801,37.15164 16.08132,-12.94191 34.78261,-22.11269 57.51301,-22.28466 0.14389,0.0544 0.26673,0.10353 0.41063,0.15793 2.92706,0.0684 7.01232,0.48609 12.6278,1.29507 30.70261,12.17506 41.97744,54.31745 13.33149,72.81869 -39.77863,4.25021 -11.08355,44.35173 -47.94213,50.76039 -0.65806,-0.76687 -1.33016,-1.37755 -1.98823,-1.8303 -2.15142,0.93884 -4.72226,1.74782 -7.9108,2.29007 -0.30183,-0.68615 -0.637,-1.37755 -0.95287,-2.02158 l -4.18178,1.25998 c 1.35123,-0.42467 2.70771,-1.00026 4.05894,-1.52847 -0.23339,-0.47205 -0.45977,-0.93181 -0.70545,-1.37754 -10.41319,-2.85863 -19.65943,-7.41594 -28.15283,-13.03142 -15.12318,4.81176 -25.51357,24.30098 -7.20536,39.02581 23.4569,14.07203 4.65558,33.36821 -13.00334,33.14183 z" /><path
       inkscape:connector-curvature="0"
       id="path100"
       style="fill:#000000;fill-opacity:1;fill-rule:nonzero;stroke:none"
       d="m 778.24597,378.4103 c -13.35392,-0.4744 -21.78455,-16.58783 -5.36149,-28.95854 l -0.36757,2.13662 c 0.63012,-0.96872 1.39424,-1.8958 2.29235,-2.73778 -11.28972,-14.73186 11.65548,-23.27656 3.10354,-37.61369 -1.00313,-0.82749 -1.93021,-1.64774 -2.82107,-2.45531 -1.9954,0.74419 -4.01795,1.40148 -6.08939,1.97366 -31.93534,12.37071 -60.11528,-12.41236 -90.60568,-12.88676 -19.34554,2.24165 -28.02423,-42.52975 -7.19392,-41.59724 4.40544,-10.48215 14.15244,5.12247 14.39326,12.03935 7.22832,-13.8917 33.45633,-14.7554 44.75149,-32.45139 -1.37976,-40.38769 37.62094,-20.46998 58.4096,-34.07015 6.6489,-33.67543 26.14834,-9.07524 30.8797,10.10733 7.63211,16.71277 7.27902,34.89765 1.14617,51.17947 11.82026,9.52067 20.91541,30.03229 31.57501,39.3049 18.33335,28.58192 -38.40678,45.49387 -54.72482,65.15808 -6.23063,8.07754 -13.31771,11.08331 -19.38718,10.87145 z" /><path
       inkscape:connector-curvature="0"
       id="path102"
       style="fill:#000000;fill-opacity:1;fill-rule:nonzero;stroke:none"
       d="m 793.4261,77.850916 c 0.9909,28.159534 3.73518,56.287544 -0.86802,84.379334 -5.88869,18.73258 -34.75555,11.88922 -51.4764,12.0121 l 2.11098,-3.80291 c -5.10101,-0.75775 -2.29529,-4.35114 -2.39297,-7.79015 19.49506,-2.84352 28.50926,-22.70721 1.56906,-25.08915 -0.16699,-0.89323 -0.27096,-1.79748 -0.41274,-2.69544 -7.07651,-0.28986 -14.09788,-1.04603 -19.75342,-1.0035 l 2.10468,-3.83915 c -5.10101,-0.76405 -2.33153,-4.3149 -2.43077,-7.75391 9.91372,-1.44618 17.09578,-7.30493 18.24579,-13.01561 0.006,-0.0126 0,-0.0299 0,-0.0425 -0.0126,-1.04604 -0.0126,-2.10468 -0.0126,-3.15702 -0.9783,-4.2771 -5.97533,-7.931934 -16.62633,-8.880294 -4.45669,-24.42435 -0.38281,-51.37085 -3.50202,-76.71836 36.44275,-8.34467 -21.93843,-34.23883 10.87312,-37.80229 20.04958,-9.29303 37.48879,-2.03693 42.5961,14.6020005 -8.61405,5.25539 -15.89378,14.7012395 -19.78964,29.4213795 -7.64364,9.5514 -5.95643,17.46442 -0.94837,23.50119 l -0.41747,0.23473 c 0.0236,0.972 0.11658,1.94399 0.22685,2.86085 -1.67303,4.11641 -0.30089,6.90479 2.6214,8.60303 6.52356,12.57136 23.16879,18.14182 38.28277,15.9757 z m -38.28277,-15.9757 c -1.34063,-2.57886 -2.23386,-5.43971 -2.6214,-8.60303 0.27096,-0.6648 0.62227,-1.35323 1.05864,-2.09838 5.82725,6.33767 15.16282,10.46196 20.26383,11.90813 -6.02417,1.49502 -14.18452,1.42728 -18.70107,-1.20672 z" /><path
       inkscape:connector-curvature="0"
       id="path104"
       style="fill:#000000;fill-opacity:1;fill-rule:nonzero;stroke:none"
       d="m 135.04595,-29.442668 c -45.541009,0.5409 -83.965339,-36.96701 -90.252789,-79.365422 -0.60125,-32.97728 7.5436,-76.43291 42.23301,-91.08203 l -2.11445,4.7318 c 7.06529,-7.46538 28.620989,-6.88871 33.439959,-2.61959 -20.927629,47.27102 57.39844,57.00506 54.64922,8.04204 21.2249,-26.56019 74.64927,37.27323 67.71586,68.33723 8.55835,54.646982 -49.41676,93.849132 -101.25193,91.772692 -1.48413,0.0961 -2.95262,0.1654 -4.41888,0.18328 z m 14.38985,-12.50338 c 44.47485,0.24363 70.59025,-68.739562 7.24633,-90.480782 -10.65269,-9.76981 -20.23027,-8.48683 -27.89681,-3.22084 l -0.23469,-0.50738 c -1.17121,-0.0603 -2.30443,-0.0961 -3.43094,-0.0425 -4.75862,-2.34019 -8.18286,-0.97005 -10.48729,2.2955 -27.773869,11.49086 -32.190509,62.445392 -1.59812,76.379262 12.54808,10.98349 25.06711,15.51412 36.40152,15.57671 z m -34.8034,-91.955972 c 3.18732,-1.31874 6.69649,-2.13904 10.48729,-2.2955 0.77559,0.38445 1.59813,0.83818 2.44301,1.42379 -8.12698,6.19805 -13.88247,16.70992 -16.08185,22.51682 -1.21368,-7.13457 -0.40232,-16.60711 3.15155,-21.64511 z" /></g></svg>